<?xml version="1.0" encoding="utf-8"?>
<!-- Generator: Adobe Illustrator 19.2.1, SVG Export Plug-In . SVG Version: 6.00 Build 0)  -->
<svg version="1.1" id="layer" xmlns="http://www.w3.org/2000/svg" xmlns:xlink="http://www.w3.org/1999/xlink" x="0px" y="0px"
	 viewBox="0 0 652 652" style="enable-background:new 0 0 652 652;" xml:space="preserve">
<style type="text/css">
	.st0{fill:#001F5B;}
</style>
<polygon class="st0" points="196.1,397.3 196.2,397.3 201.7,388.5 206.5,388.5 200.6,397.9 207.2,410.4 202.3,410.4 197.7,401.4 
	196.1,403.9 196.1,410.4 191.7,410.4 191.7,388.5 196.1,388.5 "/>
<polygon class="st0" points="216.4,397 216.5,397 219.5,388.5 224.3,388.5 218.6,401.8 218.6,410.4 214.2,410.4 214.2,401.8 
	208.5,388.5 213.5,388.5 "/>
<g>
	<path class="st0" d="M227.5,394.9c0.1-1.4,0.5-2.6,1-3.6c0.5-1,1.3-1.8,2.3-2.3c1-0.6,2.3-0.9,4-0.9c1.7,0,3,0.3,3.9,0.9
		c1,0.5,1.7,1.3,2.3,2.3c0.5,1,0.8,2.2,1,3.6c0.2,1.4,0.2,2.9,0.2,4.5c0,1.7,0,3.2-0.2,4.6c-0.2,1.4-0.5,2.6-1,3.6
		c-0.5,1-1.2,1.8-2.3,2.3c-0.9,0.5-2.3,0.8-3.9,0.8c-1.6,0-2.9-0.3-4-0.8c-1-0.5-1.8-1.3-2.3-2.3c-0.5-1-0.9-2.2-1-3.6
		c-0.1-1.4-0.2-2.9-0.2-4.6C227.3,397.8,227.4,396.3,227.5,394.9 M231.8,403.2c0.1,1,0.2,1.9,0.4,2.5c0.2,0.7,0.5,1.1,0.9,1.4
		c0.5,0.3,0.9,0.4,1.6,0.4c0.6,0,1.2-0.1,1.6-0.4c0.4-0.3,0.6-0.8,0.9-1.4c0.2-0.6,0.4-1.5,0.4-2.5c0.1-1,0.1-2.3,0.1-3.8
		c0-1.4-0.1-2.7-0.1-3.7c-0.1-1-0.2-1.9-0.4-2.5c-0.3-0.7-0.5-1.1-0.9-1.4c-0.4-0.3-1-0.5-1.6-0.5c-0.7,0-1.1,0.2-1.6,0.5
		c-0.4,0.3-0.7,0.7-0.9,1.4c-0.2,0.7-0.3,1.5-0.4,2.5c-0.1,1-0.1,2.3-0.1,3.7C231.7,400.9,231.7,402.2,231.8,403.2"/>
	<polygon class="st0" points="259.4,392.2 254.6,392.2 254.6,410.4 250.2,410.4 250.2,392.2 245.4,392.2 245.4,388.5 259.4,388.5 	
		"/>
	<path class="st0" d="M262.9,394.9c0.1-1.4,0.5-2.6,1-3.6c0.5-1,1.2-1.8,2.3-2.3c0.9-0.6,2.3-0.9,3.9-0.9c1.7,0,3,0.3,4,0.9
		c0.9,0.5,1.7,1.3,2.3,2.3c0.5,1,0.8,2.2,1,3.6c0.2,1.4,0.2,2.9,0.2,4.5c0,1.7-0.1,3.2-0.2,4.6c-0.2,1.4-0.5,2.6-1,3.6
		c-0.6,1-1.3,1.8-2.3,2.3c-1,0.5-2.3,0.8-4,0.8c-1.6,0-3-0.3-3.9-0.8c-1-0.5-1.8-1.3-2.3-2.3c-0.6-1-0.9-2.2-1-3.6
		c-0.2-1.4-0.3-2.9-0.3-4.6C262.6,397.8,262.7,396.3,262.9,394.9 M267.2,403.2c0.1,1,0.2,1.9,0.4,2.5c0.2,0.7,0.5,1.1,0.9,1.4
		c0.4,0.3,0.9,0.4,1.6,0.4c0.7,0,1.2-0.1,1.6-0.4c0.4-0.3,0.7-0.8,0.9-1.4c0.2-0.6,0.3-1.5,0.4-2.5c0.1-1,0.1-2.3,0.1-3.8
		c0-1.4,0-2.7-0.1-3.7c-0.1-1-0.2-1.9-0.4-2.5c-0.2-0.7-0.5-1.1-0.9-1.4c-0.4-0.3-0.9-0.5-1.6-0.5c-0.6,0-1.2,0.2-1.6,0.5
		c-0.4,0.3-0.7,0.7-0.9,1.4c-0.2,0.7-0.4,1.5-0.4,2.5c-0.1,1-0.1,2.3-0.1,3.7C267,400.9,267.1,402.2,267.2,403.2"/>
	<path class="st0" d="M375.9,404.3c0,2.3-0.5,4-1.6,5c-1,1-2.7,1.5-4.9,1.5c-1.2,0-2.1-0.2-2.8-0.5c-0.8-0.3-1.4-0.7-1.8-1.3
		c-0.4-0.6-0.8-1.3-0.9-2c-0.1-0.8-0.2-1.6-0.2-2.5v-1h4v0.7c0,1.2,0.1,2,0.3,2.6c0.3,0.6,0.8,0.8,1.6,0.8c0.8,0,1.3-0.2,1.6-0.8
		c0.2-0.5,0.4-1.4,0.4-2.6v-15.6h4.4V404.3z"/>
	<path class="st0" d="M390.5,388.5l5.8,21.8h-4.6l-1-4.6h-5.8l-1,4.6h-4.6l5.8-21.8H390.5z M389.9,402.2l-2.1-9.8h-0.1l-2.1,9.8
		H389.9z"/>
	<path class="st0" d="M407.5,388.5c1.1,0,2.1,0.2,2.9,0.6c0.7,0.3,1.3,0.9,1.8,1.5c0.5,0.6,0.8,1.3,1,2.1c0.2,0.8,0.3,1.6,0.3,2.4
		c0,1.1-0.1,2.1-0.5,3c-0.3,0.8-0.8,1.5-1.4,2.1c-0.6,0.5-1.3,0.9-2.2,1.2c-0.8,0.2-1.8,0.4-2.9,0.4h-2.4v8.7h-4.3v-21.8H407.5z
		 M406.1,398.4c0.9,0,1.6-0.3,2.2-0.8c0.6-0.5,0.8-1.3,0.8-2.4c0-1.1-0.2-1.9-0.7-2.5c-0.5-0.6-1.2-0.9-2.3-0.9h-1.9v6.6H406.1z"/>
	<path class="st0" d="M426.2,388.5l5.8,21.8h-4.6l-1-4.6h-5.8l-1,4.6H415l5.8-21.8H426.2z M425.7,402.2l-2.1-9.8h-0.1l-2.1,9.8
		H425.7z"/>
	<polygon class="st0" points="445.9,403.5 446,403.5 446,388.5 450,388.5 450,410.4 445,410.4 439.6,395.1 439.6,395.1 439.6,410.4 
		435.5,410.4 435.5,388.5 440.7,388.5 	"/>
	<path class="st0" d="M143.9,281.7l-1.2,10.4c-3.2,1.7-6.6,3.6-9.8,5.7c-3.3,2.1-6.5,4.3-9.6,6.7l-0.1,0.6l12.9,1.4
		c0.5,0.1,1.1,0,1.6-0.2c0.5-0.2,0.9-0.5,1.2-1c0.2-0.3,0.4-0.8,0.6-1.5c0.3-0.8,0.4-1.4,0.5-1.9l1.8,0.2l-1.7,15.2l-1.8-0.2v-1.8
		c0.1-0.8,0-1.3-0.1-1.7c-0.2-0.5-0.4-1-0.9-1.3c-0.5-0.3-0.9-0.5-1.6-0.5l-26.7-2.9c-0.6-0.1-1.1-0.1-1.6,0.1
		c-0.4,0.2-0.9,0.6-1.2,1.1c-0.3,0.5-0.6,1-0.8,1.7c-0.2,0.6-0.4,1.1-0.5,1.6l-1.8-0.2l1.6-15.2l1.8,0.2c0,0.5,0,1.1,0.1,1.8
		c0,0.7,0.1,1.3,0.2,1.6c0.2,0.6,0.5,1,0.9,1.2c0.4,0.3,1,0.4,1.5,0.5l12.9,1.4l0.1-0.5c-1.2-1.7-2.4-3.4-3.6-5.1
		c-1.3-1.7-2.6-3.2-3.9-4.6c-1.4-1.5-2.6-2.7-3.5-3.4c-0.8-0.7-1.7-1.2-2.4-1.2c-0.3,0-0.5,0.1-0.7,0.4c-0.2,0.4-0.4,0.7-0.5,1.1
		c-0.2,0.5-0.3,0.9-0.3,1.3c-0.1,0.4-0.1,0.7-0.2,1l-1.8-0.2l1.5-13.9l1.8,0.2v0.4c0,0.2,0,0.4,0,0.6c0,0.2,0,0.5,0,0.7
		c0.1,0.3,0.1,0.6,0.1,1c0.1,0.6,0.2,1.3,0.5,2c0.2,0.7,0.6,1.2,1,1.7c1.8,2,3.8,4.1,5.7,6.3c2,2.2,3.7,4.3,5.3,6.5
		c3.2-2.3,6.1-4.3,8.4-5.7c2.3-1.5,4.8-3.1,7.5-4.8c1-0.6,1.8-1.3,2.5-2c0.6-0.7,1.1-1.3,1.5-1.8c0.3-0.4,0.5-1,0.7-1.6
		c0.2-0.7,0.4-1.3,0.4-1.7L143.9,281.7z"/>
	<path class="st0" d="M121.7,236.8c-0.1,0.4-0.1,0.8-0.1,1.5c0,0.7,0,1.2,0.2,1.5c0.2,0.7,0.3,1.3,0.4,1.6c0.1,0.3,0.6,0.9,1.3,1.9
		c1.4,1.9,2.8,3.7,4.3,5.4c1.6,1.7,3.5,3.8,5.8,6.5c0.8,1,1.6,1.7,2.1,2.1c0.6,0.4,1.5,0.8,2.7,1.2l6.7,2.2c0.6,0.2,1.2,0.2,1.7,0.2
		c0.5-0.1,1-0.4,1.5-0.9c0.2-0.3,0.6-0.9,1.1-1.7c0.6-0.8,0.9-1.5,1.1-2l1.7,0.6l-5.5,16.5l-1.7-0.6c0.1-0.5,0.3-1.1,0.5-2.1
		c0.2-1,0.3-1.7,0.3-2.1c0-0.6-0.3-1.2-0.6-1.5c-0.4-0.4-0.8-0.7-1.5-0.9l-8.6-2.8c-0.3-0.1-0.8-0.1-1.7,0c-0.8,0.1-1.7,0.3-2.7,0.4
		c-2.3,0.4-4.7,0.8-7.3,1.2c-2.6,0.5-4.9,0.9-6.8,1.2c-1.1,0.3-2,0.5-2.6,0.8c-0.6,0.2-1.2,0.6-1.8,1c-0.4,0.3-0.7,0.7-1,1.2
		c-0.3,0.5-0.6,1-0.7,1.4l-1.8-0.6l4.9-15l1.7,0.6c-0.5,1.7-0.8,2.9-0.8,3.7c-0.1,0.8,0.1,1.2,0.5,1.3c0.1,0.1,0.2,0.1,0.6,0.1
		c0.3-0.1,0.6-0.1,1.1-0.1c0.5-0.1,1.1-0.2,1.7-0.3c0.6-0.1,1.3-0.2,1.9-0.3c1.7-0.3,3.5-0.6,5.2-0.9c1.8-0.3,4-0.7,6.8-1.3
		c-3.3-4-6-7-7.8-9.2c-1.9-2.1-3.1-3.3-3.6-3.5c-0.4-0.1-0.7-0.1-1,0.1c-0.3,0.2-0.6,0.6-0.9,1c-0.3,0.4-0.6,0.9-0.8,1.5
		c-0.2,0.5-0.5,1-0.7,1.5l-1.8-0.6l4.1-12.3L121.7,236.8z"/>
	<path class="st0" d="M144,202c2.3-0.5,4.7-0.6,7.3-0.1c2.6,0.4,5.1,1.4,7.6,2.9c2.5,1.5,4.6,3.2,6.1,5.3c1.6,2.1,2.7,4.2,3.3,6.5
		c0.6,2.2,0.8,4.5,0.4,6.8c-0.3,2.3-1.1,4.5-2.3,6.6c-1.3,2.2-3,4-4.9,5.4c-2,1.4-4.1,2.3-6.4,2.8c-2.2,0.5-4.6,0.5-7.2,0.1
		c-2.5-0.5-5-1.4-7.3-2.8c-2.6-1.5-4.6-3.3-6.2-5.3c-1.5-2-2.6-4.2-3.3-6.5c-0.7-2.2-0.8-4.6-0.5-6.9c0.3-2.3,1.1-4.5,2.3-6.6
		c1.2-2.1,2.8-3.8,4.8-5.3C139.7,203.5,141.7,202.5,144,202 M164.7,218.8c-0.9-1.6-2-3.2-3.6-4.6c-1.5-1.4-3.3-2.7-5.4-4
		c-2.2-1.2-4.3-2.2-6.4-2.9c-2.1-0.6-4-0.9-5.8-0.9c-1.8,0.1-3.4,0.5-4.8,1.3c-1.4,0.8-2.7,2.1-3.6,3.7c-1.1,1.8-1.6,3.6-1.5,5.3
		c0.1,1.8,0.6,3.5,1.5,5.1c0.9,1.5,2.1,3,3.6,4.5c1.6,1.4,3.3,2.7,5.2,3.8c2.2,1.3,4.2,2.3,6.2,2.9c1.9,0.6,3.9,1,5.7,0.9
		c1.8,0,3.5-0.4,4.9-1.2c1.4-0.8,2.7-2,3.7-3.7c1-1.6,1.5-3.3,1.5-5C166,222.1,165.5,220.4,164.7,218.8"/>
	<path class="st0" d="M180.3,168.2l-1.3,1.3c-0.6-0.3-1.3-0.6-2.2-0.9c-0.9-0.3-1.8-0.5-2.7-0.6c-1-0.2-1.8-0.3-2.7-0.2
		c-0.8,0-1.5,0.3-2,0.6c-0.4,0.3-0.9,0.8-1.5,1.4c-0.6,0.6-1.2,1.1-1.6,1.6l-1,1.1l21.7,20.2c0.5,0.4,0.9,0.7,1.4,0.8
		c0.5,0.2,1.1,0.1,1.7-0.2c0.3-0.1,0.9-0.5,1.7-1.1c0.9-0.6,1.5-1.1,1.8-1.5l1.3,1.3L183,205l-1.3-1.2c0.3-0.4,0.7-1,1.4-1.8
		c0.6-0.8,1-1.4,1.1-1.8c0.3-0.6,0.3-1.1,0.2-1.6c-0.1-0.5-0.5-1-1-1.5l-21.8-20.4l-1,1.1c-0.4,0.4-0.9,0.9-1.4,1.5
		c-0.5,0.6-1,1.2-1.4,1.8c-0.4,0.4-0.5,1.1-0.5,2c0.1,0.9,0.2,1.8,0.4,2.7c0.2,1,0.5,1.8,0.8,2.7c0.4,0.9,0.7,1.6,1,2.1l-1.2,1.3
		l-7.3-6.9l22-23.6L180.3,168.2z"/>
	<path class="st0" d="M210.3,139c2.3,0.5,4.5,1.5,6.7,2.9c2.2,1.5,4,3.4,5.7,5.8c1.7,2.4,2.8,4.9,3.4,7.4c0.6,2.6,0.7,5,0.2,7.3
		c-0.4,2.3-1.2,4.4-2.5,6.4c-1.2,1.9-2.9,3.6-4.8,5c-2.1,1.4-4.4,2.4-6.7,2.8c-2.3,0.5-4.7,0.5-6.9-0.1c-2.3-0.5-4.4-1.5-6.6-3
		c-2.1-1.5-3.9-3.4-5.4-5.6c-1.7-2.5-2.9-4.9-3.5-7.4c-0.6-2.5-0.6-4.9-0.2-7.3c0.3-2.3,1.2-4.4,2.5-6.5c1.2-2,2.8-3.6,4.8-4.9
		c2-1.4,4.1-2.3,6.5-2.8C205.8,138.5,208.1,138.5,210.3,139 M222.1,162.8c-0.1-1.8-0.5-3.7-1.2-5.6c-0.8-1.9-1.9-3.9-3.3-6
		c-1.4-2.1-3-3.9-4.6-5.3c-1.6-1.5-3.2-2.5-4.9-3.2c-1.6-0.7-3.3-1-4.9-0.8c-1.7,0.2-3.3,0.8-4.8,1.8c-1.7,1.2-2.9,2.6-3.6,4.2
		c-0.6,1.6-0.9,3.3-0.8,5.2c0.2,1.7,0.7,3.6,1.4,5.6c0.8,1.9,1.9,3.8,3.2,5.7c1.4,2.1,2.9,3.8,4.4,5.2c1.6,1.4,3.2,2.4,4.8,3.2
		c1.7,0.7,3.4,1,5,0.9c1.7-0.1,3.3-0.7,4.9-1.8c1.6-1,2.7-2.4,3.5-4C221.9,166.3,222.2,164.6,222.1,162.8"/>
	<path class="st0" d="M281.5,108.7c-0.5,0.1-1.1,0.5-2,0.9c-0.9,0.4-1.6,0.9-2,1.5c-0.5,0.5-0.7,1.5-0.5,2.7
		c0.2,1.3,0.4,2.8,0.9,4.5l4.4,15.5c0.6,2,0.6,3.8,0.1,5.5c-0.4,1.7-1.1,3.2-2.2,4.5c-1.1,1.3-2.3,2.3-3.7,3.1
		c-1.4,0.9-2.7,1.4-4.1,1.8c-2.1,0.6-4.1,0.8-6,0.7c-1.8-0.1-3.4-0.4-4.9-1.1c-1.4-0.6-2.5-1.5-3.5-2.6c-0.9-1-1.6-2.3-2-3.6
		l-5.9-21.2c-0.1-0.5-0.4-1-0.7-1.4c-0.3-0.3-0.8-0.6-1.5-0.8c-0.5-0.1-1-0.2-1.7-0.1c-0.6,0-1.3,0.1-1.7,0.2l-0.5-1.7l14.7-4.2
		l0.5,1.7c-0.5,0.2-1,0.4-1.7,0.7c-0.7,0.4-1.1,0.6-1.4,0.9c-0.5,0.3-0.8,0.8-0.9,1.3c0,0.5,0,1,0.2,1.6l5.5,19.7
		c0.3,1,0.6,1.9,1.2,3c0.5,1,1.2,1.8,2.1,2.5c0.9,0.8,2,1.3,3.3,1.6c1.3,0.3,3,0.2,4.9-0.5c1.9-0.5,3.4-1.2,4.5-2.1
		c1.1-1,1.9-2,2.3-3.2c0.4-1.1,0.7-2.2,0.7-3.3c0-1-0.1-2.1-0.4-3.1l-4.1-14.6c-0.6-1.9-1.1-3.4-1.7-4.5c-0.6-1.1-1.2-1.8-1.8-2
		c-0.7-0.3-1.6-0.4-2.7-0.4c-1.1,0.1-1.9,0.2-2.5,0.3l-0.5-1.8l14.7-4.1L281.5,108.7z"/>
	<path class="st0" d="M333.2,105.6c-0.5,0.1-1.2,0.2-2.2,0.5c-1,0.3-1.7,0.6-2.2,0.9c-0.6,0.4-1,1.3-1.2,2.5
		c-0.2,1.2-0.3,2.8-0.2,4.7l1,27.2l-2.3,0.1l-23.4-29.6l0.7,19.2c0.1,2.1,0.2,3.8,0.6,4.9c0.3,1.1,0.7,1.9,1.3,2.4
		c0.4,0.3,1.2,0.7,2.5,1c1.3,0.3,2.1,0.4,2.5,0.4l0.1,1.8l-15.2,0.5l-0.1-1.8c0.5,0,1.2-0.3,2.4-0.6c1-0.3,1.8-0.6,2.1-0.9
		c0.6-0.5,0.9-1.2,1.1-2.2c0.2-1,0.2-2.8,0.2-5.2l-0.6-18.3c0-0.8-0.2-1.6-0.5-2.3c-0.3-0.8-0.7-1.5-1.2-1.9c-0.6-0.5-1.5-1-2.6-1.4
		c-1.1-0.4-1.9-0.6-2.6-0.6l0-1.8l10.7-0.4l21.6,27.4l-0.6-17.6c-0.1-2.2-0.3-3.8-0.6-4.9c-0.3-1.1-0.7-1.9-1.2-2.2
		c-0.5-0.3-1.3-0.6-2.4-0.9c-1.1-0.3-2-0.4-2.5-0.4l0-1.9l15.1-0.5L333.2,105.6z"/>
	<path class="st0" d="M356.1,144.8l-16.5-2.5l0.3-1.8c0.5,0.1,1.2,0.1,2,0.2c0.9,0.1,1.5,0.1,1.9,0c0.6-0.2,1.1-0.4,1.4-0.7
		c0.3-0.4,0.5-1,0.6-1.6l4.1-26.7c0.1-0.6,0.1-1.1-0.1-1.5c-0.1-0.4-0.5-0.8-1.2-1.2c-0.5-0.2-1.1-0.6-1.8-0.9
		c-0.8-0.3-1.4-0.5-1.9-0.6l0.2-1.8l16.5,2.5l-0.2,1.8c-0.6-0.1-1.2-0.1-2-0.1c-0.7,0-1.4,0-1.9,0.1c-0.8,0.1-1.2,0.4-1.5,0.8
		c-0.3,0.4-0.5,1-0.6,1.5l-4.1,26.6c-0.1,0.6-0.1,1.1,0.1,1.6c0.2,0.5,0.6,0.9,1.1,1.3c0.4,0.2,0.9,0.4,1.7,0.7
		c0.8,0.3,1.5,0.5,2,0.6L356.1,144.8z"/>
	<path class="st0" d="M407.3,123.5c-0.4-0.1-1-0.2-1.6-0.2c-0.7-0.1-1.3,0-1.7,0.1c-0.7,0.1-1.3,0.5-1.8,0.9c-0.5,0.4-1.1,1-1.6,1.6
		c-2,2.2-5.1,5.8-9.1,10.6c-4.1,4.8-8.4,9.9-12.8,15.1l-2-0.7c-0.2-7.2-0.4-14.2-0.6-20.8c-0.2-6.7-0.3-11.2-0.4-13.6
		c0-0.6-0.1-1.1-0.3-1.6c-0.2-0.5-0.5-1-1-1.5c-0.4-0.4-0.8-0.8-1.2-1.2c-0.5-0.3-1-0.6-1.4-0.8l0.6-1.7l14.4,4.9l-0.6,1.8
		c-1.3-0.4-2.3-0.6-3.2-0.7c-0.9,0-1.5,0.1-1.5,0.6c-0.1,0.2-0.1,0.4-0.2,0.7v0.7c0,1.9,0.1,4.8,0.2,8.9c0.1,4.1,0.3,10,0.6,17.6
		c2.3-2.6,4.9-5.7,8-9.3c3.1-3.6,5.1-6.1,6.2-7.5c1-1.3,1.7-2.3,2-2.8c0.3-0.5,0.5-1,0.7-1.4c0.1-0.4,0-0.7-0.2-1.1
		c-0.2-0.4-0.6-0.7-1.1-1.1c-0.5-0.4-1-0.7-1.5-1c-0.5-0.3-1.1-0.5-1.6-0.8l0.6-1.7l13.1,4.4L407.3,123.5z"/>
	<path class="st0" d="M432,165.7l-6.2,9l-26.4-15.8l0.9-1.5c0.5,0.3,1.1,0.5,1.9,0.9c0.8,0.3,1.4,0.5,1.6,0.6c0.6,0.1,1.1,0,1.5-0.3
		c0.4-0.2,0.8-0.7,1.1-1.2l13.7-23c0.3-0.5,0.5-1,0.5-1.5c0.1-0.5-0.1-1-0.5-1.5c-0.3-0.5-0.7-0.9-1.3-1.5c-0.6-0.6-1-1-1.5-1.3
		l0.9-1.6l24.7,14.8l-4.6,7.7l-1.8-1c0.4-1.3,0.5-2.9,0.2-4.8c-0.2-1.9-0.8-3.1-1.6-3.8c-0.5-0.3-0.9-0.7-1.6-1.2
		c-0.7-0.4-1.4-0.8-2.2-1.3l-5-3l-7.6,12.7l3.6,2.1c1.2,0.7,2.1,1.1,2.7,1.2c0.6,0.1,1.3,0,2.1-0.3c0.6-0.2,1.2-0.6,1.9-1.2
		c0.6-0.6,1.2-1.2,1.7-1.8l1.7,1l-7.4,12.4l-1.7-1c0.4-0.7,0.7-1.6,0.9-2.5c0.2-1,0.3-1.7,0.2-2.3c-0.2-0.8-0.4-1.5-0.9-2.1
		c-0.4-0.5-1.2-1.1-2.2-1.6l-3.6-2.2l-5.7,9.6c-0.6,1-0.9,1.8-1.2,2.4c-0.2,0.6-0.2,1.2,0.1,1.7c0.2,0.6,0.6,1,1.2,1.5
		c0.6,0.5,1.6,1.1,2.8,1.8c0.5,0.3,1.1,0.7,1.9,1.1c0.8,0.6,1.5,0.9,2.1,1.2c0.6,0.2,1.2,0.5,1.9,0.7c0.7,0.2,1.3,0.2,1.7,0.1
		c1.1-0.3,2.5-1,4.1-2c1.7-1,2.7-1.8,3.4-2.4L432,165.7z"/>
	<path class="st0" d="M457.9,203.7l-7.3-6.8c0.8-4,1.3-7.6,1.8-10.6c0.4-3.1,0.8-6.3,1.1-9.7l-2.8-2.7l-8,8.6
		c-0.4,0.4-0.8,0.9-1,1.4c-0.1,0.4-0.1,1,0.2,1.6c0.2,0.3,0.5,0.8,1,1.3c0.5,0.6,0.9,1.1,1.4,1.5l-1.3,1.4L431.6,179l1.3-1.3
		c0.3,0.3,0.8,0.6,1.4,1.1c0.7,0.5,1.1,0.8,1.4,0.9c0.5,0.1,1,0.2,1.5,0c0.4-0.2,0.9-0.5,1.4-1l18.4-19.6c0.4-0.4,0.7-0.9,0.9-1.3
		c0.2-0.5,0.1-1-0.2-1.6c-0.2-0.4-0.5-0.9-0.9-1.4c-0.4-0.6-0.8-1-1.1-1.4l1.2-1.3l12.5,11.7c1.1,1,2.1,2.2,2.9,3.4
		c0.8,1.2,1.4,2.4,1.7,3.7c0.3,1.2,0.3,2.5,0,3.8c-0.3,1.3-1,2.5-2.1,3.6c-1,1.1-2,1.9-3.1,2.3c-1.1,0.5-2.2,0.8-3.4,0.8
		c-1.1,0-2.2-0.2-3.4-0.5c-1.1-0.4-2.4-0.8-3.6-1.5c-0.3,3-0.6,5.5-0.8,7.6c-0.2,2-0.5,4.5-0.9,7.4c-0.2,1.3-0.2,2.3-0.1,3.1
		c0.1,0.8,0.3,1.5,0.5,2.2c0.2,0.4,0.4,1,0.8,1.5c0.4,0.6,0.8,1,1.1,1.3L457.9,203.7z M466.8,174.1c1.6-1.6,2.3-3.4,2.3-5.2
		c0-1.8-0.9-3.6-2.6-5.2l-3.2-3l-11,11.6l2.5,2.4c1.7,1.6,3.8,2.5,6,2.4C463,177,465,176,466.8,174.1"/>
	<path class="st0" d="M487.3,216.4c-0.3,1.1-0.7,2.1-1.4,3c-0.6,0.9-1.5,1.8-2.7,2.6c-2.7,1.9-5.6,2.5-8.7,1.7
		c-3.1-0.7-5.7-2.5-7.8-5.5c-1-1.3-1.7-2.9-2.2-4.5c-0.5-1.7-0.8-3.2-0.9-4.6l-2.2,0.2l-1.2-1.7l10.2-7.7l1.2,1.7
		c-1,1.3-1.9,2.5-2.6,3.7c-0.7,1.2-1.3,2.6-1.6,4c-0.3,1.3-0.4,2.7-0.1,4c0.1,1.3,0.7,2.7,1.7,4c0.7,1,1.4,1.7,2.2,2.3
		c0.7,0.6,1.6,0.9,2.3,1c0.8,0.1,1.7,0.1,2.4-0.2c0.8-0.2,1.6-0.6,2.4-1.2c1.2-0.8,2.1-2,2.7-3.4c0.6-1.5,0.7-3,0.2-4.7
		c-0.3-1.2-0.6-2.6-1-4c-0.4-1.5-0.7-2.8-1-4c-0.4-2.3-0.3-4.3,0.2-6.1c0.6-1.9,1.9-3.5,3.9-4.9c1.1-0.8,2.3-1.3,3.7-1.6
		c1.3-0.2,2.7-0.2,4.1,0.1c1.3,0.4,2.6,0.9,3.8,1.7c1.2,0.8,2.2,1.8,3.1,3.1c1,1.4,1.7,2.8,2,4.2c0.4,1.4,0.6,2.7,0.6,4.1l2-0.2
		l1.3,1.8l-10,7.3l-1.2-1.8c0.9-1.1,1.7-2.3,2.5-3.4c0.7-1.2,1.4-2.3,1.8-3.5c0.4-1.3,0.6-2.4,0.4-3.6c-0.1-1.3-0.6-2.5-1.6-3.8
		c-0.9-1.3-2.2-2.2-3.8-2.5c-1.6-0.3-2.9-0.1-4.2,0.8c-1.3,1-2.2,2-2.6,3.2c-0.4,1.2-0.6,2.6-0.3,4.2c0.2,1.4,0.5,2.7,0.8,4
		c0.4,1.2,0.7,2.5,0.9,3.7c0.3,1.1,0.4,2.2,0.5,3.3C487.5,214.2,487.5,215.3,487.3,216.4"/>
	<path class="st0" d="M485.5,249.5l-7.3-15l1.6-0.8c0.2,0.4,0.6,0.9,1.1,1.7c0.4,0.8,0.8,1.3,1.1,1.6c0.5,0.4,0.9,0.7,1.4,0.7
		c0.5,0.1,1,0,1.6-0.4l24.1-11.9c0.5-0.2,1-0.5,1.2-0.9c0.3-0.3,0.4-0.9,0.4-1.7c-0.1-0.6-0.1-1.3-0.4-2c-0.2-0.8-0.4-1.4-0.5-1.9
		l1.6-0.8l7.4,14.9l-1.6,0.8c-0.2-0.5-0.6-1-1-1.6c-0.4-0.6-0.9-1.1-1.3-1.6c-0.4-0.5-1-0.7-1.5-0.7c-0.6,0-1,0.1-1.6,0.4
		l-24.1,11.9c-0.5,0.2-1,0.6-1.2,1c-0.3,0.4-0.4,1-0.4,1.7c0,0.3,0.2,1,0.4,1.8c0.2,0.8,0.4,1.5,0.7,2L485.5,249.5z"/>
	<path class="st0" d="M523.3,277.7l-0.5-1.8c0.5-0.3,1.1-0.8,1.9-1.4c0.6-0.6,1.3-1.3,1.9-2c0.6-0.7,1.1-1.4,1.5-2.2
		c0.4-0.7,0.6-1.4,0.5-2c-0.1-0.6-0.2-1.2-0.4-2c-0.2-0.8-0.4-1.5-0.6-2.2l-0.4-1.5l-28.4,8.5c-0.5,0.2-1,0.4-1.4,0.8
		c-0.4,0.3-0.6,0.9-0.7,1.6c0,0.3,0,1,0.1,2c0.1,1,0.2,1.8,0.3,2.3l-1.8,0.5l-5-16.8l1.8-0.5c0.2,0.5,0.4,1.2,0.9,2.1
		c0.4,0.9,0.7,1.6,1,1.9c0.4,0.5,0.8,0.8,1.3,1c0.5,0.1,1,0.1,1.8-0.1l28.7-8.5l-0.4-1.5c-0.1-0.5-0.4-1.2-0.6-1.9
		c-0.2-0.8-0.5-1.5-0.8-2.2c-0.2-0.5-0.7-1-1.5-1.4c-0.8-0.4-1.6-0.7-2.5-1c-0.9-0.3-1.8-0.5-2.8-0.6c-1-0.2-1.7-0.2-2.3-0.2
		l-0.6-1.7l9.7-2.8l9.2,30.9L523.3,277.7z"/>
	<path class="st0" d="M536.2,319.7c-0.1-0.3-0.2-0.7-0.5-1.4c-0.2-0.6-0.5-1-0.8-1.3c-0.5-0.7-0.9-1.1-1.1-1.3
		c-0.2-0.3-0.9-0.6-1.9-1.2c-2-1.2-4.1-2.3-6.1-3.3c-2.1-1-4.7-2.2-7.9-3.6c-1.1-0.6-2.1-0.9-2.8-1c-0.7-0.2-1.7-0.2-3-0.1l-7.1,0.6
		c-0.6,0.1-1.2,0.2-1.6,0.5c-0.4,0.3-0.8,0.8-1,1.4c-0.1,0.4-0.2,1.1-0.3,2.1c-0.1,1-0.2,1.7-0.1,2.3l-1.8,0.1l-1.6-17.4l1.8-0.2
		c0.1,0.5,0.2,1.2,0.3,2.2c0.2,1,0.4,1.7,0.6,2c0.3,0.6,0.7,1,1.2,1.2c0.5,0.2,1,0.2,1.7,0.2l9-0.7c0.3-0.1,0.8-0.3,1.5-0.7
		c0.7-0.4,1.5-0.9,2.4-1.4c1.9-1.2,4-2.6,6.2-4c2.2-1.5,4.2-2.8,5.7-3.9c0.9-0.6,1.6-1.3,2.1-1.7c0.5-0.5,0.9-1,1.2-1.7
		c0.3-0.4,0.4-1,0.5-1.5c0.1-0.6,0.1-1.1,0.1-1.6l1.8-0.1l1.4,15.7l-1.8,0.2c-0.2-1.8-0.4-3-0.7-3.7c-0.2-0.7-0.6-1-1-1
		c-0.1,0-0.3,0.1-0.5,0.2c-0.3,0.1-0.6,0.3-1,0.5c-0.4,0.3-1,0.6-1.5,0.9c-0.5,0.4-1.1,0.7-1.5,1.1c-1.5,0.9-3,1.9-4.5,2.8
		c-1.5,1-3.3,2.3-5.7,3.8c4.6,2.4,8.2,4.1,10.8,5.4c2.6,1.2,4.1,1.8,4.6,1.7c0.3,0,0.7-0.2,0.9-0.5c0.2-0.3,0.4-0.7,0.5-1.2
		c0.1-0.5,0.1-1.1,0.1-1.7v-1.6l1.8-0.2l1.2,12.9L536.2,319.7z"/>
	<path class="st0" d="M154,414.7l-0.8-1.8c1.1-1,2.1-2.3,3-3.9c0.9-1.7,1.3-3.1,1-4.1c-0.2-0.5-0.4-1.1-0.7-1.8
		c-0.3-0.7-0.6-1.4-1-2.3l-2.6-5.7l-13.4,6.2l1.8,3.9c0.5,1.2,1.1,2,1.6,2.6c0.6,0.6,1.2,0.9,1.9,1.1c0.6,0.2,1.2,0.2,2,0.2
		c0.9-0.1,1.7-0.3,2.7-0.6l0.8,1.8l-13.2,6.1l-0.8-1.8c0.7-0.3,1.4-0.8,2.1-1.5c0.7-0.8,1.3-1.4,1.5-1.9c0.3-0.8,0.5-1.5,0.3-2.4
		c-0.1-0.8-0.4-1.7-0.8-2.7l-1.8-3.9l-11.7,5.4c-0.5,0.2-0.9,0.5-1.2,0.9c-0.3,0.4-0.5,0.9-0.5,1.5c0,0.3,0,0.9,0.3,1.8
		c0.2,0.8,0.4,1.5,0.6,1.9l-1.6,0.8l-6.8-14.6l1.6-0.8c0.3,0.4,0.6,1,1,1.8c0.4,0.8,0.7,1.3,1,1.4c0.4,0.3,0.9,0.6,1.4,0.6
		c0.5,0,1-0.1,1.6-0.3l24.4-11.3c0.6-0.2,1-0.5,1.3-0.8c0.4-0.4,0.6-0.9,0.6-1.5c0-0.6-0.1-1.2-0.3-2c-0.2-0.8-0.4-1.4-0.5-1.9
		l1.7-0.8l12.1,26.4L154,414.7z"/>
	<path class="st0" d="M180.9,443.8c-0.4,2.3-1.2,4.6-2.6,6.8c-1.3,2.2-3.2,4.2-5.4,6c-2.4,1.8-4.7,3-7.3,3.8
		c-2.5,0.7-4.9,0.9-7.2,0.6c-2.3-0.3-4.5-1-6.5-2.2c-2.1-1.1-3.8-2.7-5.3-4.6c-1.6-2-2.6-4.3-3.2-6.6c-0.6-2.3-0.7-4.6-0.2-6.9
		c0.4-2.3,1.3-4.5,2.6-6.7c1.4-2.2,3.1-4.1,5.3-5.8c2.4-1.8,4.8-3,7.2-3.7c2.5-0.7,4.9-0.9,7.2-0.7c2.4,0.3,4.5,1,6.6,2.2
		c2.1,1.2,3.8,2.7,5.2,4.6c1.6,2,2.6,4,3.2,6.4C181.1,439.3,181.3,441.6,180.9,443.8 M157.7,456.7c1.9-0.2,3.7-0.7,5.6-1.6
		c1.9-0.8,3.8-2,5.7-3.5c2-1.6,3.7-3.2,5.1-4.9c1.4-1.7,2.4-3.4,3-5c0.6-1.7,0.8-3.3,0.5-5c-0.3-1.7-0.9-3.2-2-4.7
		c-1.3-1.6-2.8-2.8-4.4-3.3c-1.6-0.5-3.4-0.7-5.2-0.5c-1.8,0.2-3.6,0.8-5.5,1.7c-1.9,0.9-3.8,2-5.6,3.5c-2,1.5-3.7,3.1-5,4.7
		c-1.3,1.5-2.3,3.2-3,4.9c-0.6,1.7-0.9,3.4-0.7,5c0.2,1.6,0.9,3.3,2.1,4.8c1.1,1.5,2.5,2.6,4.1,3.2
		C154.1,456.7,155.8,457,157.7,456.7"/>
	<path class="st0" d="M222,476.4c-0.4-0.3-1-0.7-1.9-1.1c-0.8-0.4-1.6-0.6-2.3-0.8c-0.7-0.1-1.6,0.3-2.5,1.2c-1,0.8-2,2-3.1,3.4
		L202,491.7c-1.3,1.6-2.7,2.8-4.3,3.4c-1.6,0.6-3.3,0.9-5,0.8c-1.7-0.2-3.2-0.5-4.7-1.2c-1.4-0.6-2.8-1.4-3.8-2.3
		c-1.7-1.4-3.1-2.9-4.1-4.4c-1-1.6-1.7-3.1-1.9-4.6c-0.3-1.5-0.3-2.9,0.1-4.3c0.4-1.4,0.9-2.6,1.8-3.7l13.7-17.2
		c0.4-0.5,0.6-0.9,0.7-1.4c0.1-0.5,0.1-1-0.2-1.6c-0.1-0.5-0.5-1-0.9-1.5c-0.5-0.6-0.8-1-1.2-1.3l1.2-1.4l11.9,9.5l-1.1,1.4
		c-0.4-0.3-0.9-0.6-1.6-0.9c-0.6-0.4-1.1-0.6-1.5-0.8c-0.6-0.2-1.1-0.2-1.6,0.2c-0.5,0.2-0.9,0.6-1.2,1.1l-12.8,16
		c-0.6,0.8-1.2,1.6-1.7,2.6c-0.6,1-0.9,2.1-0.9,3.2c-0.1,1.2,0.1,2.3,0.7,3.5c0.5,1.2,1.6,2.5,3.3,3.8c1.5,1.2,2.9,2,4.3,2.3
		c1.4,0.4,2.7,0.4,3.9,0c1.1-0.3,2.2-0.7,3.1-1.3c0.9-0.6,1.7-1.4,2.3-2.2l9.5-11.9c1.2-1.5,2.1-2.8,2.6-4c0.6-1.1,0.8-1.9,0.6-2.6
		c-0.2-0.7-0.6-1.5-1.4-2.3c-0.6-0.9-1.2-1.5-1.6-1.8l1.1-1.5l11.9,9.5L222,476.4z"/>
	<path class="st0" d="M263,495.9c-0.5-0.2-1.2-0.3-2.3-0.6c-1-0.2-1.8-0.3-2.3-0.2c-0.8,0.1-1.5,0.7-2.2,1.8
		c-0.7,1.1-1.5,2.4-2.3,4.2l-11.3,24.8l-2.1-1l-7.8-36.9l-7.9,17.4c-0.9,2-1.5,3.6-1.7,4.7c-0.2,1.2-0.2,2.1,0.1,2.8
		c0.2,0.5,0.8,1.2,1.8,2c1,0.8,1.6,1.3,2,1.5l-0.7,1.6l-13.9-6.3l0.7-1.7c0.5,0.2,1.2,0.3,2.4,0.5c1.1,0.2,1.9,0.2,2.2,0.2
		c0.7-0.2,1.4-0.8,2.1-1.6c0.6-0.8,1.4-2.3,2.5-4.6l7.6-16.7c0.3-0.7,0.6-1.5,0.7-2.4c0.1-0.8,0-1.5-0.2-2.1
		c-0.4-0.8-0.9-1.6-1.7-2.4c-0.8-0.8-1.5-1.4-2.1-1.7l0.8-1.7l9.7,4.4l7.2,34.2l7.3-16c0.9-2,1.5-3.5,1.7-4.7c0.2-1.2,0.2-2-0.2-2.6
		c-0.3-0.5-0.9-1.1-1.7-1.9c-0.9-0.7-1.5-1.2-2.1-1.5l0.8-1.6l13.7,6.2L263,495.9z"/>
	<path class="st0" d="M301.9,520.9c-0.5,3.1-1.6,5.7-3.2,7.8c-1.6,2-3.5,3.6-5.6,4.8c-2.2,1.1-4.5,1.8-6.9,2.1
		c-2.5,0.3-4.9,0.2-7.4-0.2l-15.1-2.8l0.3-1.8c0.5,0.1,1.1,0.2,2,0.2c0.8,0.1,1.4,0.1,1.7,0c0.5-0.2,1-0.4,1.3-0.8
		c0.3-0.4,0.5-0.9,0.6-1.5l4.9-26.5c0-0.6,0-1.1,0-1.6c-0.1-0.5-0.4-1-1-1.3c-0.5-0.3-1-0.7-1.6-0.9c-0.6-0.2-1.1-0.4-1.5-0.5
		l0.3-1.8l15.9,2.9c2.2,0.4,4.3,1.1,6.3,2.2c1.9,1.1,3.7,2.3,5,3.7c1.9,1.9,3.1,4.2,3.9,6.9C302.4,514.5,302.5,517.5,301.9,520.9
		 M295.7,519.7c0.5-2.4,0.6-4.8,0.3-6.8c-0.4-2.1-1-4-1.9-5.8c-0.9-1.6-2.2-3-3.7-4.1c-1.6-1.1-3.4-1.9-5.5-2.3
		c-0.7-0.1-1.5-0.2-2.4-0.4c-0.9-0.1-1.5-0.2-1.9-0.3l-5.2,28.2c-0.3,1.6,0,2.7,0.8,3.5c0.8,0.7,2.1,1.3,4,1.6
		c2.2,0.4,4.1,0.4,5.9-0.1c1.7-0.5,3.2-1.4,4.5-2.5c1.3-1.2,2.4-2.8,3.2-4.5C294.6,524.4,295.2,522.2,295.7,519.7"/>
	<path class="st0" d="M346.6,527.3l-0.2,11l-30.8,1.5l-0.1-1.9c0.5,0,1.2-0.1,2.1-0.3c0.9-0.1,1.4-0.3,1.7-0.4
		c0.5-0.3,0.9-0.6,1.1-1.1c0.2-0.5,0.3-1,0.2-1.6l-1.3-26.7c0-0.6-0.1-1.1-0.4-1.6c-0.2-0.4-0.6-0.8-1.2-1c-0.5-0.2-1.2-0.4-1.9-0.5
		c-0.8-0.2-1.5-0.2-1.9-0.3l-0.2-1.8l28.7-1.3l0.4,9l-2,0.1c-0.4-1.3-1.2-2.7-2.5-4.1c-1.2-1.4-2.4-2.2-3.4-2.3
		c-0.6-0.1-1.2-0.1-2-0.1c-0.8,0-1.6,0-2.5,0.1l-5.8,0.3l0.7,14.7l4.2-0.2c1.3-0.1,2.3-0.2,2.9-0.5c0.6-0.3,1.1-0.7,1.6-1.3
		c0.3-0.5,0.6-1.2,0.9-2.1c0.2-0.8,0.3-1.6,0.4-2.4l2,0l0.7,14.4l-2,0.1c-0.1-0.9-0.3-1.7-0.7-2.6c-0.3-0.9-0.7-1.5-1-1.9
		c-0.6-0.7-1.2-1-1.9-1.3c-0.7-0.1-1.6-0.2-2.7-0.2l-4.2,0.3l0.5,11.1c0,1.1,0.2,2,0.4,2.7c0.2,0.6,0.5,1.1,1,1.4
		c0.5,0.3,1.1,0.5,1.9,0.5c0.7,0.1,1.9,0.1,3.2,0c0.6-0.1,1.4-0.1,2.3-0.1c1-0.1,1.7-0.1,2.3-0.2c0.6-0.1,1.3-0.2,2-0.5
		c0.7-0.2,1.2-0.5,1.5-0.8c0.7-0.9,1.5-2.2,2.3-3.9c0.8-1.7,1.3-3,1.5-3.8L346.6,527.3z"/>
	<path class="st0" d="M392.5,508.4c0.9,3,1.1,5.8,0.6,8.4c-0.5,2.5-1.5,4.8-2.8,6.7c-1.5,2-3.2,3.6-5.3,5c-2.1,1.3-4.3,2.4-6.8,3.1
		l-14.8,4.2l-0.4-1.8c0.4-0.1,1.1-0.4,1.8-0.7c0.8-0.3,1.3-0.6,1.5-0.8c0.4-0.3,0.7-0.8,0.8-1.3c0-0.5,0-1-0.1-1.6l-7.4-25.8
		c-0.2-0.6-0.4-1.1-0.7-1.5c-0.3-0.4-0.8-0.7-1.5-0.8c-0.6-0.1-1.2-0.1-1.8-0.1c-0.6,0.1-1.2,0.1-1.6,0.2l-0.5-1.7l15.5-4.4
		c2.2-0.6,4.4-0.9,6.6-0.9c2.3,0.1,4.3,0.5,6.2,1.1c2.5,0.9,4.7,2.4,6.6,4.5C390.2,502.4,391.6,505.1,392.5,508.4 M386.4,510.1
		c-0.7-2.4-1.6-4.5-2.8-6.3c-1.2-1.8-2.6-3.1-4.2-4.2c-1.6-1.1-3.3-1.8-5.2-2c-1.9-0.3-3.9-0.2-6,0.4c-0.7,0.2-1.4,0.5-2.3,0.7
		c-0.9,0.2-1.5,0.5-1.9,0.6l7.8,27.5c0.4,1.5,1.2,2.4,2.3,2.8c1,0.3,2.5,0.2,4.3-0.3c2.1-0.6,3.9-1.5,5.3-2.7c1.3-1.2,2.4-2.7,3-4.3
		c0.7-1.7,0.9-3.6,0.9-5.6C387.5,514.7,387.1,512.5,386.4,510.1"/>
	<path class="st0" d="M473.2,463.3c2,2.1,2.8,4.8,2.4,8.1c-0.4,3.3-2.1,6.3-5.1,9.2c-2.8,2.7-5.7,4.1-8.7,4.2c-3,0.2-5.6-0.8-7.7-3
		c-1.5-1.7-2.3-3.5-2.4-5.5c0-2.1,0.5-4.4,1.8-6.9c-2.4,0.6-4.6,0.7-6.4,0.4c-1.8-0.3-3.3-1.2-4.6-2.5c-2-2.1-2.7-4.6-2.3-7.7
		c0.5-3.1,1.9-5.7,4.4-8c2.4-2.3,5-3.6,7.8-3.6c2.8-0.2,5.1,0.8,7,2.7c1.2,1.3,1.9,2.9,2.2,4.8c0.3,2-0.1,4.1-1,6.3
		c2.9-1.2,5.4-1.6,7.4-1.4C469.8,460.7,471.6,461.6,473.2,463.3 M455.5,454c-1.5-1.5-3.1-2.3-4.9-2.4c-1.8-0.1-3.5,0.6-4.9,1.9
		c-1.4,1.4-2.2,2.9-2.2,4.7c-0.1,1.8,0.6,3.4,1.9,4.8c1.2,1.3,2.8,2,4.7,1.9c1.9,0,4.7-0.8,8.3-2.3c0.4-1.5,0.3-2.9-0.2-4.4
		C457.7,456.7,456.8,455.4,455.5,454 M470.2,467.8c-0.7-0.8-1.5-1.4-2.5-1.6c-1-0.2-1.9-0.3-3.1-0.2c-1.1,0.1-2.4,0.5-4,1
		c-1.6,0.5-3.3,1.2-5.1,1.9c-0.6,1.8-0.7,3.5-0.4,5c0.4,1.6,1.2,3,2.4,4.3c1.8,1.9,3.8,2.8,6,2.9c2.2,0,4.2-0.7,6-2.5
		c1.8-1.7,2.7-3.5,2.8-5.4C472.4,471.1,471.7,469.3,470.2,467.8"/>
	<path class="st0" d="M488.6,424.7c2.5,1.8,4.5,3.8,6.2,6.2c1.6,2.3,2.7,4.8,3.3,7.4c0.6,2.6,0.7,5.3,0.3,8.1
		c-0.4,2.9-1.3,5.7-2.8,8.5l-2.2-1l1-2.2c1.3-3.8,1.5-7.2,0.7-10.4c-0.7-3.1-2.5-6-5.2-8.7c0.1,1.9,0,3.6-0.3,5
		c-0.4,1.5-1.1,3-2.1,4.4c-1.6,2.3-4,3.7-7,4.1c-3,0.4-5.9-0.3-8.6-2.3c-2.9-2.1-4.7-4.8-5.3-8.3c-0.6-3.4,0.1-6.5,2.2-9.5
		c2.3-3.2,5.2-4.9,8.8-5.1C481.1,420.8,484.8,422,488.6,424.7 M485.2,429.1c-3.3-2.4-6.3-3.7-9-3.9c-2.6-0.3-4.6,0.5-5.8,2.3
		c-1.2,1.7-1.5,3.6-0.7,5.7c0.6,2.1,2.4,4,4.9,5.9c2.3,1.6,4.5,2.4,6.7,2.3c2.2-0.1,3.9-1,5.1-2.8c0.8-1.2,1.3-2.3,1.6-3.6
		c0.3-1.2,0.2-2.5-0.1-4c-0.1,0-0.2-0.1-0.3-0.2c-0.2-0.1-0.4-0.3-0.7-0.6c-0.2-0.1-0.4-0.3-0.7-0.5
		C485.8,429.6,485.5,429.3,485.2,429.1"/>
	<path class="st0" d="M495,383.8l24.7,31.9l-1.4,3L495.5,389l-4.3,9.2c-0.6,1.3-1.1,2.4-1.5,3.2c-0.3,0.8-0.5,1.6-0.5,2.4
		c0,0.6,0.3,1.3,1,2c0.6,0.8,1.6,1.6,2.8,2.4l-0.6,1.5l-9.3-4.3l10.3-22.3L495,383.8z"/>
	<path class="st0" d="M150.4,321.2c0,93.8,76.3,170.1,170.1,170.1c93.8,0,170.1-76.3,170.1-170.1c0-93.8-76.3-170.1-170.1-170.1
		C226.6,151.1,150.4,227.4,150.4,321.2 M154.5,321.2c0-91.5,74.4-165.9,165.9-165.9s165.9,74.4,165.9,165.9
		c0,91.5-74.4,165.9-165.9,165.9S154.5,412.7,154.5,321.2"/>
	<path class="st0" d="M320.4,154.8c-91.9,0-166.4,74.5-166.4,166.4c0,91.9,74.5,166.4,166.4,166.4c91.9,0,166.4-74.5,166.4-166.4
		C486.8,229.3,412.3,154.8,320.4,154.8 M328.1,266.6l3.9-2.7c0.5,2.6,1.5,5.3,3.9,7l-10.2,13.6c-0.1,4.2,3.5,6.7,5.3,10.1
		c-1.2,3.8-6.3,6.4-4.9,10.9c3.3,3,6.3,9.1,11.2,7.7c1.7-1.2,2.7-3.1,1.7-4.8l-4.5-5c1.2-3.6,6-6.3,4.2-10.8
		c-10.3-5.9,1.4-11.9,3.5-17.8c-2.6-4.6,2.9-3.8,4.6-6.3c1,12.1-3.7,27.4,9.4,33.5c6.3,3.3,14.9,2.8,21-0.4
		c5.8-3.1,10.4-9.1,13.3-14.6l0.6,0.7c-0.9,4.9-4.2,11.3,0,15.7c4.3,4.2,10.8,5.1,16.6,3.4c-20.6,4.2-47.5,0.5-57.1,23.5
		c-1.4,9.7,0.3,19.9,5.2,27.9l-8.1,1.5c-2.3-8.1-3.8-16.6-5.9-24.8c-1.1-1.3-2.7-2.6-4.2-1.8c-1.3,0.1-2.3,1.5-2.8,2.5
		c0.8,9,4,17,5.3,25.9c-2.8,1.3-6.4,1.2-8.1,4.1c-1.3,2.3,0.8,4.6,2.8,5.2c12.6-3.5,26.1-7.5,39.9-5.9c10.2,7.5,22.5,5.8,35,5.5
		c2.2-1.2,2.7-3.8,1.5-5.5c-6-4.4-12.9,0-20.1-1.5c-8.7-2.7-16.4-9.1-26.9-6.6c-5.5-7.3-8.5-17.5-5.5-26.6
		c7-11.1,20.5-12.5,32.9-13.6c14.4,0.1,27.7-4,36.7-15.4c2.7,0.6,4.5-0.8,6.3-2.4c3.3,1.9,8.5,1.1,10.5,4.9c2.5,3.7,9,0.9,9.4,6.6
		c2.8,3.6,7.3,3.5,10.9,5.2l7.7-3.8c4.4,1.4,8.7,6.2,13.6,3.1c2.1,63-29.3,121-85.4,152.4c-49.6,30.6-127,26.2-173.7-7.8
		c-47.5-32.5-72.5-81.8-73.5-137.2c8.2-0.4,15.4,6,23.5,1.8c2.3-1.6,4.6-3.9,4.2-6.9c0.6-3.7-2-6.5-5-8.1c-0.5,0.1-0.7-0.5-1-0.6
		c4,0.3,8.2,3.3,12.9,1.7c5.7-0.3,11.9-6.9,17.1-1c4.1,0.9,8.3,0.2,11.6-2.2c2.9-2,3.2-5.6,2.4-8.7c-1.2-1.8-2.5-4-4.6-5.2l1.5-0.7
		c4.6,3.4,9.8,6.3,16,4.6c2.6-3.4,5.6-0.2,8.8-0.8c11.2,16.1,30.2,16.6,44.6,26.5c4.9,4.5,4,11.7,2.1,17.2c2.3,4.1-2.8,6.4-1.4,10.1
		l-4.6,10.5c-12.7-1.1-26.7,3.7-39.2,0c-2.3,0.9-2.9,3.5-2.1,5.6c3.8,3.1,9.2,2.6,14,3.1c11.2,0.3,24.8-3.5,35,1.8
		c2,0.1,4-1.3,4.6-3.1c0.1-2.9-2.6-4.6-4.8-5.2c1.5-3.4,3.4-6.7,4.2-10.5c1.5,0.3,2.5-0.5,3.8-0.8c-0.8,2.7-0.4,6.4,2.6,7.4
		c1.9,0.5,3.2-0.7,4.4-2.1c-0.4,0.6,0.8,2.6,0.3,4.3c-2.3,0.9-4.4,2.7-5.9,4.8c-0.6,2.3,0.6,4.7,2.8,5.2c3.5,0.8,4.8-4.8,8.4-2.8
		c1.9,1.3,3.6,4.1,6.3,2.4c1.7-1.5,2.7-3.6,1.4-5.5c-1.5-1.6-3.2-3.3-5.3-3.9c-0.1-9.1-1.3-17-0.4-26.2c2.4-14.8,8.5-28.5,5.6-45.1
		c-1.6-5.6-0.6-12.6-4.8-16.8c-2.6-0.7-5,0.8-5.3,3.2c2.9,12.2,4.9,27.6,1,40.2c-1.2,5.8-3,11.4-3.8,17.5c-3.1-0.1-3.4-2.4-5.9-3.9
		h-1.8c-0.1-2.6,3.6-1.5,4.1-4.2c0.3-2-0.8-3.8-2.4-4.5h-2.1c2.1-1.3,2.5-3.6,1.7-5.7c-0.9-1.6-2.9-1.9-4.8-1.7
		c1.3-2.2-0.8-4.2-2.5-5.2l-3.5,0.8c-0.2-1.4-0.9-2.9-2.2-3.5c-1.4-0.9-3.1-0.1-4.5,0.3c0.6-1.8-0.8-3.1-2-3.8
		c-1.6,0-3.1-0.2-4.3,0.7c-0.8-2.3-3.5-3.1-5.6-2.2l-0.7,0.6c-0.8-3.6-5.6-1.3-6-4.4c-0.8-1.6-2.3-1.3-3.5-1.7
		c1.3-2.7,2.9,0.5,4.5,0.3c2.6,1.4,6,0.6,8.5-0.7c2.4-1.8,2.6-5,2.4-7.4c5.8,5.1,12.7,8.6,20.6,7.4c1.4-3.4,10.2-1.3,7.7-7.7
		c-2-1.7,1.8-1.8,1.8-3.5c0.6-2.2-0.7-4-2.4-4.9c-0.9,0.3-1.2-0.7-2-0.3c1,0,2.4-1.8,3-2.8c0.6-2.2-0.8-4.3-2.8-4.8h-1.7v-1.8
		c4.7,2.5,7.8-5,11.8-0.4c3.2-0.2,6.5-1.8,7.8-4.8l0.3-1.5C320.6,265.3,324.2,268.4,328.1,266.6 M479.4,272.6l-4.9,1
		c-1.4-2.3,2.6-2.8,3.5-4.9C479,269.8,479,271.2,479.4,272.6 M481.9,280.5c0.7,2.2-1.8,2.4-2.8,3.5c-2.2-0.3-4.7-0.6-5.9-2.4
		c0.8-2.8,4-3.1,6.3-3.8C481.3,277.6,481.6,279.1,481.9,280.5 M359.3,283.1c4.5,2,8.7-0.9,12.9-1.5l1.1-1.1c-1,2.6,0.1,5.2,1.7,7
		c1.4,1,2.6,2.3,4.6,1.7c-2.5,4.7-7.2,6.8-12,7.4c-4,0.5-7.2-0.9-10.1-2.9c-4.5-3.3-3-9.5-2.8-14.3
		C356.4,279.8,357.7,282.2,359.3,283.1 M484.7,293.6c-2,2.9-5.3,1.7-8.1,0.9c-1.6-0.3-2.4-2.7-1-3.8c1.6-1.7,4.3-0.9,6.3-2.1
		C484.5,288.3,484.1,291.7,484.7,293.6 M408.6,294.5l4.9,1.1c-2.9,3.4-9.1,5.1-14.6,3.9c-3.2-0.1-2.1-3.2-2.1-5.2l1.8-5
		c2.5,1.2,7.3-2.5,6.6,2.5L408.6,294.5z M471.7,297.3l-1.8-0.6h1L471.7,297.3z M470.9,303c-0.2,1.2-0.4,2.4-0.2,3.7l-5.3,3.2
		c-2.7-0.6-5.3-1.3-7.3-3.4c-0.5-2.6,1.9-3.6,3.5-4.6C464.6,301.4,468.4,301.2,470.9,303 M485.4,301.5c-0.2,2.8,3.8,9-2.1,9.2
		c-2.4-2.1-7.9-1.2-7.3-5.9C478.4,302,481.7,301.2,485.4,301.5 M361.4,162.5c-0.2,2.9-2.9,5.2-5.2,7c-1.6,0.6-4.2-0.8-4.2-2.8
		c-0.6-3.4,4.5-4.8,2.2-8.5C356.5,159.7,362.2,158,361.4,162.5 M367,161.5c1,0.6-0.2,1.2-0.4,1.8l-0.3-1.8H367z M376.9,167.8
		l-4.2,3.1c-2.3-1.1-1.5-4.8-0.8-6.6c1.4-1.9,3.1,0.6,5,0.3V167.8z M366,168.8c-2.1,0.6-3.6,2.2-5.3,3.9l5-5.6
		C366.2,167.1,365.9,168.2,366,168.8 M389.8,173c-0.4,2.4-3.1,3.6-4.9,4.8c-1.1,0.2-2.5-0.5-2.5-1.7c-0.4-3.2,1.1-5.7,3.2-7.7
		C387.8,168.8,391.1,170.1,389.8,173 M369.9,179c0.1,2.3-2.6,3.9-4.2,5.2c-1-0.2-2.1-0.6-2.2-1.8c-0.6-3.5,0.7-6.2,3.1-8.4
		C369.8,173.9,369.7,176.6,369.9,179 M403.8,177.9c1,4.6-4,5.5-6.7,7.4c-1.8,0.5-3.1-0.7-3.4-2.1c-0.3-3.7,1.4-6.5,3.7-9.1
		C399.8,175,402.1,176.2,403.8,177.9 M358.7,185.6c-1.8,1.5-3.1,3.9-5.6,3.5c-2-1.6-1.9-4.6-1.4-7c0.9-2.1,2.1-4.8,4.5-5.6
		C361.1,177.2,356.9,183,358.7,185.6 M382.4,185.3c-2.1,1.4-4.3,4.8-7,3.1c-0.9-3.3,0-6.8,2.6-9.1
		C378.9,181.8,383.7,181.8,382.4,185.3 M390.2,187.3c-1.4,2.1-4.2,4.6-6.7,4.2l-0.3-0.3c3.8-1.6,5-5.5,4.8-9.4
		C389.3,183,388.4,185.9,390.2,187.3 M416.7,189c-2.4,1-4.5,4-7.3,2.8c-2.5-1.8,0.1-4.3,0.3-6.3C411.4,179.3,418.8,185.9,416.7,189
		 M398.9,190.5c-5.6,2.1-4.4,9.6-10.5,10.1c0.2-1.5,0.4-3.2,0.3-4.8c3.8-1.8,5.1-6.9,10.2-5.7c1.8-0.1,3.2-2.7,4.5-2.2
		C403.5,190.4,400.2,189,398.9,190.5 M369.9,190.1c0.6,1.9,0.2,4.2,0.3,6.3c-2,1.1-3.7,4.5-6.3,3.5c-1.7-1.5-1.3-4.8-0.4-6.7
		C364.3,191.2,367.4,187,369.9,190.1 M429.3,195.8c0.3,3.3-3.9,3.5-5.9,4.8c-1.7,0.2-3.4-0.1-3.9-1.7c0.4-3,1.7-5.5,4.2-7.7
		C425.7,192.2,427.6,193.8,429.3,195.8 M404.1,201c-1.9,1.2-4,3.2-6.3,2.4c-1.1-1.9,0.3-4.8,1.4-6.7c1.5-1.1,3.1-2.7,4.9-2.1
		C405.7,196.5,404.1,198.8,404.1,201 M383.5,198.2c-1.5,1.3-3.2,2.6-5.3,2.8c-2-1.8-0.6-4.6,0.4-6.3
		C380.1,196.1,383.1,196.3,383.5,198.2 M360.7,204.1c-1.4,1.1-2.4,3.1-4.6,2.4c-1.8-1.5-1-4.7-0.7-6.6l1.7-2.8
		C357.9,199.3,358.4,202.2,360.7,204.1 M415,201l-1.4,5.9c-2.7,1.3-5.6,3.3-8.7,2.4c-0.7-0.6-1-1.2-1-2.1c1.7-1.3,4.3-1.4,5.3-3.8
		c0.7-2.1-0.5-5.7,2.4-6.3C414.1,196.5,415,198.8,415,201 M438.1,203.7c0.1,3.2-3.8,2.5-5.7,3.9c-1.9,0.4-4,0.5-4.8-1.7
		c0-2.4,3.2-2.5,4.8-3.9l1.1-2C435.4,200.4,436.6,202.4,438.1,203.7 M376.9,208c-1.9,1.4-3.8,3.4-6.3,3.5c-1.8-1.1-1-3.8-0.7-5.2
		l2.8-4.3C373,205.1,377.9,204.7,376.9,208 M395.4,211.4c-2.1,1.5-4.3,2.8-6.9,2.7c-2.1-1.6-0.7-4.5,0.3-6.2l3.5-3.5
		C392.6,207.3,397.9,207.4,395.4,211.4 M425.9,214.6c-2.8,0.6-6.5,3.3-9.1,0.4c0-3.8,2.3-7.1,5.6-8.8
		C422,209.8,428.6,211.3,425.9,214.6 M444.7,210.7c-1.3,2-2.6-0.4-4.2-0.3l1.3-2.1C443.2,209,444.1,209.4,444.7,210.7 M385.2,218.4
		c-1,1.4-3.5,2-5.2,1.7c-2.3-2-1.2-5.2,0-7.4l2.1-2.8C382.5,212.8,382.4,216.7,385.2,218.4 M365.7,213.9c1.3,4-1.9,7.1-5,8.3
		c-1.8,0.2-2.1-1.4-2.4-2.8c0.4-3,1.6-6.6,4.8-8C365.2,210.8,364.5,213.2,365.7,213.9 M407.3,215c0.6,3.8-4,4-6.4,5.2
		c-1.5,0.2-3.3-0.2-3.8-1.7c-1-3.5,4.1-2.6,3.5-6C402.4,214.3,404.9,214.7,407.3,215 M437.4,215.9c-1.4,2.3-1.7,5.5-1.4,8.1
		c0.5,0.9,1,1.8,1.7,2.4c-2,1.2-5.3,1.9-8.1,1.1c-1.9-1.6-1-3.9-0.3-5.9C431.3,218.8,434.1,216.5,437.4,215.9 M449.3,216.7
		c-0.6,2.5-1.5,6.8-5.2,6.2c-1.1-0.2-2.5,0.6-3.1-0.7c0.3-2.4,1.8-5,4.2-5.9C446.2,215.9,448.3,215.6,449.3,216.7 M376.9,224
		c-2.6,2.1-5.6,4.5-9.2,3.5c-0.8-0.7-1.2-1.8-1-3.1c1.5-1.5,4.1-2.2,4.3-4.5c-0.3-2,0.2-3.8,2.5-3.4
		C373.7,219.2,374.1,222.1,376.9,224 M417.1,221.5c-1.3,0.8-3,1.5-4.6,0.7v-3.4C414.2,219.3,415.4,221,417.1,221.5 M393.3,222.2
		c-0.5,0.2-1.7,1.3-2.4,0.4l-0.7-0.7C391.4,220.8,392.9,219.9,393.3,222.2 M413.6,227.8c-0.6,2.1-0.9,6.9-4.9,6.6
		c-1.6,0-3.4,1.5-4.8,0c-2.1-1.4-0.4-3.9,0.3-5.6l3.8-3.5C409.8,226.2,411.2,228,413.6,227.8 M390.2,227.8c0.3,4.4-2.7,7.3-6.7,8.1
		c-1.4,0.3-2.3-0.5-3.1-1.4c0.1-3.6,1.6-6.9,4.8-8.7C387.4,225.4,388.2,227.8,390.2,227.8 M399.9,225.8c-2.6,2.8-0.3,8.6-5.6,9.4
		c1-2.6-0.6-9.3,4.6-9.4H399.9z M427.9,232.4c0.2,3.9-3.8,3.1-6.3,4.1c-1.6,0-3,0.1-3.9-1.4c-0.1-3.3,2.4-6.1,5.2-7.7
		C424.6,228.5,425.5,231.8,427.9,232.4 M460.9,232.7c-2.8,0.6-5.2,2.7-7,4.9c-1.3-2.8,1.9-1.5,2.8-2.8l2.7-4.2
		C460.2,230.9,460.9,231.8,460.9,232.7 M373.7,238c-2.2,1.2-4,3.6-7,3.1c-1.8-1.9-0.5-5,0.4-7c1.8-1.9,4.8-0.6,6.6-2.1
		C375.3,233.5,373.7,236,373.7,238 M437.4,232c0.1,0.5-0.5,0.7-0.8,1.1h-2.4C435.3,232.7,436.4,232.4,437.4,232 M448.2,236.2
		c0.4,1.6-1.2,3.1-2,4.6c-2.2,0.2-4,0.9-6.3,0.6c-1.9-1.1-0.7-2.9,0-4.2C442.2,232.7,444.9,237,448.2,236.2 M361.4,242.1
		c-0.6,1-1.9,1.8-3.5,1.5c-1.8-0.7-0.7-2.5-1-3.8l3.5-3.2C361.3,237.9,360,240.8,361.4,242.1 M465.4,239.7c0.5,1.8-1.2,2.6-2.1,3.8
		c-1.8,0.4-4.4,0.8-6-0.4c-0.5-2.6,2-3.3,3.5-4.8C462.7,237.8,464.8,237.2,465.4,239.7 M404.1,240.1c0.7,2.2-1.3,4.2-2.1,6.3
		c-2.6,0.7-5.3,2-8.1,0.9c-1.8-1.9,0.2-4.2,1-5.9l4.2-3.4C400.9,238.6,402.1,240.2,404.1,240.1 M433.9,238.4
		c-1.9,3.5,3.7,6.2-0.8,8.7c-2.5,0-7,1.7-8.3-1.5c0.2-4.3,4.6-4.9,7.4-7.3H433.9z M420.2,241.8c-0.4,1.9-0.5,3.7-1.7,5.3
		c-2.7,0-6,1.7-8.3-0.4c-0.4-3.3,1.5-4.7,3.8-6.9C416,240.4,417.7,242.2,420.2,241.8 M386.3,240.4c-1.3,2.2-4.2,3.2-7,3.2
		c-1-0.7-2.1-2.3-0.7-3.2C380.7,241.4,384.2,241.4,386.3,240.4 M375.1,250.2c-2.4,1.2-4.9,3.2-7.6,2.4c-2.2-1.5,0-3.3,0-5.3
		c1.5-1.4,4-1.1,5.5-2.6C374.5,245.8,376.4,247.9,375.1,250.2 M457.4,248.8l-2.1,4.8c-2.4,0.6-5.6,0.7-7.3-1.3
		c-0.8-3.2,2.3-5.4,4.5-6.7C453.7,246.9,455.3,248.8,457.4,248.8 M383.2,248.4c-0.4,2.7-3.2,4.8-5,6.7
		C380.4,253.1,379.4,247.9,383.2,248.4 M395,253c0,1.7-3.3,2-5.3,2.4c-1,0.1-2.1,0-2.8-1.1c-0.4-2,0.7-3.4,1.8-4.9
		C390.3,251.2,392.3,253.3,395,253 M471.4,251.3c-0.2,2.3-2.3,3.9-3.9,5.6c-2.5,0.1-4.7-0.2-6.6-1.1c-0.8-2.2,1-4.5,3.1-5.3
		C465.8,249.2,470.6,248.3,471.4,251.3 M443.7,254.7c0.3,1.6-1.6,2.3-2,3.5c-2.7-0.5-6.5,1.2-8.1-1.3c-0.7-2.9,2.2-4.9,4.2-6.1
		c1.5-0.6,3.4-1,5-0.7C442.5,251.9,442.8,253.5,443.7,254.7 M410.4,253c-1.3-0.1-5.1,1.8-7-0.4c-1.1-2.3,1.9-1.1,2.5-2.4L410.4,253z
		 M428.3,259.3c-3,0.3-7.7,1.2-9.1-2.1c0-2.3,1.7-4.2,3.5-5.6l6,1.4L428.3,259.3z M365.3,259.3c-2.4,1.3-4.9,3.4-7.7,2.4
		c-1.1-2,0.3-4.7,1.4-6.6l2.4-2.1C361.5,255.9,366,256,365.3,259.3 M404.5,258.9c-0.5,1.8-1.8,3.1-2.8,4.6c-2.5,0.3-5.2,1-7.1-0.7
		c-0.8-4.2,4.2-3.3,5.3-6.3C401.2,258.1,402.7,258.8,404.5,258.9 M385.9,260.3c-0.8,0.6-2,0.2-3.1,0.3c-0.7-0.8-0.3-2.1,0.4-2.8
		L385.9,260.3z M447.6,259.3l1.7-0.4C448.9,258.4,447.5,258.2,447.6,259.3 M418.9,264.2c-1.9,1.8-5.4,1-7.7,0.7
		c-1.5-1-0.3-2.7,0.3-3.8l2.4-2.1C415.3,260.5,416.7,262.9,418.9,264.2 M377.6,261.7c-1.5,3.3-2.2,7.5-7,7l-2.4-0.7
		c-0.8-2.6,1-4.1,2.4-5.9C372.4,260.8,376.8,258.2,377.6,261.7 M476.2,262.8c-0.4,1.9-2.5,2.5-3.8,3.8c-2-0.6-4.5-0.1-6-1.8
		c-0.1-1.2,0.2-2,1-2.7C470.2,261.7,475.8,257.1,476.2,262.8 M461.2,261.3c0.1,1.4,0.2,3.6-1.8,4.6l-4.5-0.7c-1-1.7,1.4-3.4,2.7-3.9
		C459,261.1,459.9,261.1,461.2,261.3 M436.4,264.5c-0.1,2.3-2.3,3.7-3.5,5.5c-2.4,0-5.2,0.3-6.7-1.4c0.3-3,3.6-4.4,6.1-5.2
		C433.6,263.5,435.3,263.2,436.4,264.5 M449.7,271.8c-2-0.7-4.9,0.2-6-2c-0.4-3.4,3.2-4.2,5.3-5.6
		C448.2,266.9,454.3,269.4,449.7,271.8 M392.9,268.7c-0.5,4.2-5.5,2.1-8.4,3.1c-1.2-0.6-3,0-3.8-1.7c-0.8-1.4,0.1-2.9,0.7-4.2
		C385.7,267.9,391.3,261.5,392.9,268.7 M360.7,267.4l-1.1,4.8c-1.9,0.9-3.4,2.6-5.9,2.1c-1.8-1.9,0.2-3.9,0.6-5.6
		C355.7,265.3,358.4,268.2,360.7,267.4 M411.9,270.5c-0.6,0.8-0.8,1.7-1.7,2.4c-3.1-0.2-7.2,0.7-8.5-2.1c-1.5-3.6,3.4-1.1,4.3-3.9
		C407.7,268.3,409.2,270.3,411.9,270.5 M468.6,274.3c-2.9,1.7-4.9,6.5-9.1,4.2c-1.5-1.1-4.4-0.6-4.9-2.8c-0.2-1.9,0.8-3.7,2.4-4.6
		c4.7,2.3,6.6-4.4,10.3,0C469.3,270.3,469.9,273.4,468.6,274.3 M370.5,273.9c-0.2,3-2.9,3.5-5.2,4.2c-1.7-0.6-3,1.4-4.2-0.3
		c1.5-1.5,4.2-2.5,3.8-5.2C366.9,273.1,368.2,274.5,370.5,273.9 M374.7,277.8l1.8-4.5C379.8,275.4,374.9,275.8,374.7,277.8
		 M443,276.1l3.5,0.6c-1.8,1.7-3.9,3.6-5.2,6c-3.3-0.4-7.6-0.2-9-3.5c-0.1-3.5,3.9-4.7,6.2-5.9C440.4,273.4,441.4,275.2,443,276.1
		 M425.9,276.1c-0.3,2.1-2.8,3.5-4.2,5.2c-2.7,0.1-5.5-0.1-7-2.1c0.6-3.1,3.9-3.9,6.2-4.9C422.8,274.3,425.2,273.9,425.9,276.1
		 M406.2,278.1c-0.6,2.3-2.7,4.1-4.5,5.9c-2.7-0.1-5.7,0.5-7.7-1c-1.5-2.6,1-5.1,3.2-6C400.1,275.6,402.8,278.7,406.2,278.1
		 M388.4,278.1c0.1,2.5-1.9,4.1-3.2,5.9c-2.6,0.1-5.2,0.7-7-1c0.2-3.1,3.4-5.2,6-6C385.7,277.1,387.4,276.9,388.4,278.1
		 M457.7,283.4l-4.2,3.9c-2.3-0.5-5-0.2-6.6-2.1c-1-2.5,2-2.8,3.1-4.2C452.6,280.6,455,283,457.7,283.4 M420.2,286.6
		c-0.8,1.4-2.3,2.5-3.5,3.8c-2.7,0.1-5.8,0.3-7.3-2c-0.2-1.6,1.7-2.7,2.8-3.5C414.5,286.4,417.6,285.9,420.2,286.6 M471.7,287.5
		c-0.4,4.1-4.2,3.8-7,2.5c-0.8-0.5-0.6-1.3-0.6-2.1C465.9,286.1,469.9,283.7,471.7,287.5 M447.6,291.4L443,296
		c-1.9-1-4.2-0.8-5.9-2.3c-0.8-2.3,1.8-3.7,3.1-4.3C443.2,286.8,444.7,291.5,447.6,291.4 M431.8,290c-0.3,1.7,1,5.3-2.2,5.9
		c-1.9-0.5-4.1-0.3-5.5-1.7C424.3,290.9,428.3,289.2,431.8,290 M460.5,296.7c-4.6,0.2-6.4,8.6-11.6,3.4c-0.3-0.8-0.9-1.5-0.7-2.4
		C451.2,294.7,457.6,292.9,460.5,296.7 M467.2,296.3c-0.6,0-1.6,0.2-1.5-0.7L467.2,296.3z M337.3,155.6c0,2.2-0.6,5.6-0.4,7.9
		c-0.3-0.1-0.5,0.2-0.7,0.4l-2.5-8.3H337.3z M348.9,159.3c0,2.6-2.4,4.8-4.6,5.9c-1.1-0.4-2-1.6-2.1-2.7c0-2.1,0.1-4.2,0.8-6
		C345.2,156.8,349,156.1,348.9,159.3 M340.4,173.7c-0.4,1.9-1.9,3.4-3.5,4.8c-1-0.1-1.9-1-2.1-2c-0.2-3,0.2-6.1,2.5-7.7
		C339.7,168.9,339.5,171.9,340.4,173.7 M350.2,173.7c-0.9,1-1.8,1.8-3.1,1.8c-2.1-0.9-1.1-3.1-1.7-4.6
		C347.8,167.4,348.3,172.7,350.2,173.7 M345.7,187.3c-2.1,2.3-3.9,6.9-7.7,5.6c-2.6-2.3-2.6-6.5-1.4-9.4c3,0.6,4.9-2.2,6.6-4.2
		C345.7,180.7,346,184.6,345.7,187.3 M350.2,197.5c-2.1,1.7-3.3,5.8-6.6,4.2c-1.4-0.9-0.2-2.8-1-3.9c2.6-0.8,4.1-3.5,5.9-5.5
		C350.7,193,350.2,195.9,350.2,197.5 M340.1,205.2c-2.1,1.9-2.8,6.6-6.8,5.5c-2.1-1.3-1.6-4.4-1.7-6.2c2.7-1.4,3.5-4.3,5.3-6.3
		C338,200.2,337.5,203.4,340.1,205.2 M321.9,213.5c-1.7,0.5-2.5-0.9-3.2-2.1V210c2.1,0.6,4.6,0.6,5.9-1.4
		C324.1,210.4,323.3,212,321.9,213.5 M350.2,212.8c0.1,2.5,1.4,5.1,0.4,7.7c-2.7,2.2-4.8,6.5-8.5,5.3c-2.7-2-2.1-5.6-1.8-8.4
		c1.2-2.9,2.4-6.3,5.6-7.7C348.1,209.2,350.1,211,350.2,212.8 M328.9,218.8c-1.7,1.2-2.3,4.9-5,3.4c-0.7-1-1.3-2-1.1-3.4
		c2.1-1.1,4.7-3.3,5.2-5.6C329.1,214.5,330.4,217,328.9,218.8 M318,223.7c-1.2,2.2-1.6,4.8-3.9,6.7c-3.2,0.7-4.1-2.5-4.8-4.6
		c-0.2-3.5,0.1-6.7,2.4-9.1C316.5,215.8,316.2,221.1,318,223.7 M357.6,227.2c2,5.2-2.9,7.9-6.3,9.7c-0.9-0.3-2.1-0.6-2.4-1.8
		c-1.5-4.4,2-7.7,4.9-10.8C355.4,224.5,356.1,226.6,357.6,227.2 M332,231.3c-0.6,2.4-2.7,5.1-4.9,5.9c-1.2,0.6-1.6-0.9-2.5-1.4
		c-2.2-3.3,2.6-4.6,1.1-8.1c1.5-0.4,3-1.1,4.1-2.1C331.6,226.9,331.6,229.3,332,231.3 M345,238.6c-1.3,1-3,2.8-4.6,1.1
		c-1-2.3-1-5.4,0-8.1c0.7-0.8,2.4-0.9,3.2-0.3C343.5,234,343.5,236.7,345,238.6 M308.7,236.2c-0.9,2.6-1,6.2-3.9,7.4
		c-2-0.2-3-2.3-3.5-3.8c-0.1-1.2,0.3-2.6-0.3-3.5c1.7-0.8,3.8-2.7,4.6-4.5C307,232.6,307.5,234.8,308.7,236.2 M316.7,235.5h-1
		l2.8-2.2C318.1,234.3,317.6,235.3,316.7,235.5 M296,238.4c-0.4,3.1-0.2,6.8-3.1,8.7c-2.4,0-4.7-2.4-5.3-4.6
		c-3.8-4.4,3.9-4.8,3.1-8.8C292.7,234.9,294.7,236.3,296,238.4 M316.7,240.8c-0.7,2.6-0.2,4.4-0.4,7.3c-1.2-1,0.3-2.9-0.6-4.2
		l-1.8-3.1H316.7z M327.9,244.7c-1,1.8-2.2,3.8-3.9,5.2c-1.5,0-2.1-1.3-2.4-2.5c-0.7-2-0.1-4.3,0.6-6.2
		C323.7,243.3,327.9,240.9,327.9,244.7 M343,248.4c-1.7,2.1-3.8,5.9-7,5.6c-2-2-2-5.1-1.4-7.7l1.7-3.2
		C338,246.2,343.7,243.8,343,248.4 M353.4,251.9c-1.6,1.3-3.2,2.8-5.3,3.2c-1.3-0.7-1-2-1-3.2c0.8-2.4,1.9-6,5.2-6.3
		C354.3,246.8,353,249.8,353.4,251.9 M307.5,250.5l-1.4-1.7l4.2-2.8C309.8,247.7,309.9,250.3,307.5,250.5 M298.8,256.5
		c-0.6,0.6-1.6,0.2-2.4,0.4c-1.1-1.6-2.6-2.9-2.4-5c2.8,1.5,4.2-5.7,6.3-1.4L298.8,256.5z M329.2,258.6c-1.1,1.4-2.4,3.4-4.6,3.1
		c-1.8-1.5-1-4.7-0.7-6.6c2.1,0,3.4-1.4,5-2.5C329.2,254.5,330.8,256.8,329.2,258.6 M314.5,259.6c-0.7,1.4-1.6,3.1-3.1,3.9
		c-1-0.4-2.3-0.6-2.5-1.8c1.4-3-0.2-7.7,4.3-8.7C314.3,254.7,316.4,257.3,314.5,259.6 M302.3,263.9c-1.5,0.2-2.7-0.2-3.5-1.5
		c2.3-0.9,5.1-3.1,5.7-5.9C304.7,258.9,304.1,262.1,302.3,263.9 M345.7,262.4c-2.4,1.2-4.2,5-7.3,3.5c-1.6-1.4-1.2-3.9-0.7-5.6
		c0.6-2.2,3.6-1.5,4.9-3.5C344.1,258.8,346.7,259.8,345.7,262.4 M330.6,162.5c-1.6,2.1-2,5.2-4.9,6.6l-1.8-0.4l3.5-7
		c-0.2-2.6-2.4-4.7-2.1-7C329.3,155,329.4,159.7,330.6,162.5 M312.4,155.2c-1,1.5-0.9,3.3-1.4,4.8c-2.2-0.5-2.9-3.3-3.1-4.8H312.4z
		 M304.7,161.5c-0.9,2.1-0.8,4.6-2.7,6.3c-2.7,1.2-3.2-1.9-4.3-3.2c-0.4-2.4-0.8-5.6,0.8-7.7C301.8,153,303.3,159.6,304.7,161.5
		 M322.2,160.8c-0.6,2.2-1.3,4.6-3.5,6c-1.7,0.1-1.3-2-2.4-2.9c0.1-2.8-0.3-5.7,1.8-7.7C320.9,155.9,320.9,159.2,322.2,160.8
		 M291.5,160.8c1,2.4-0.2,4.8-1.7,6.6c-2,0.3-2.2-1.8-3.3-2.8c-0.2-2-1.3-5.5,1.1-6.6C290,156.9,290.1,159.8,291.5,160.8
		 M278.5,161.5c-0.7,2.4-0.4,5.5-2.4,7.3c-3,0.7-4.4-2-5.3-4.2l-0.3-1.8C272.9,161.9,276.1,160.3,278.5,161.5 M309.3,173.7
		c-0.6,1.3-2.3,2.8-3.8,1.8c-0.7-1-1.6-1.8-1.4-3.2c2.7-1,4-3.9,4.8-6.2C311.1,168.2,310.7,171.3,309.3,173.7 M269,171.9
		c-0.3,2.8,1,7.8-2.4,9c-2.6,0-5.1-2.1-5.7-4.5c-0.8-2.4-1.5-5.1-0.7-7.7C263.1,164,266.5,169.9,269,171.9 M284.8,171.6l-2.5-3.5
		l2.5,2.4V171.6z M255,170.5c-0.9,0.4-1.2-0.7-1.8-0.9l1.5-1.1C255.3,168.7,254.9,169.8,255,170.5 M298.1,174.8
		c-0.8,2.1-1.2,5-3.5,5.9c-2,0-2.7-2.4-3.9-3.5c-0.6-1.4-0.2-3.3-0.3-4.9c1.6,0,3-1.1,4.2-2.4C295.4,172.2,299.6,171.8,298.1,174.8
		 M327.2,174c-0.7,2.7-1.8,5.1-4.3,7c-2.6,0.3-3.9-1.4-4.9-3.5c-0.1-1.9-1.3-3.9-0.4-5.9C321.2,171.7,323.4,175.8,327.2,174
		 M281.3,179c-1.1,1.9-0.5,4.9-3.1,5.9c-2.1,0.1-3.9-1.5-5-3.1l1.5-7.3c2.6,0.4,5.3-3.2,6.6,1V179z M313.2,185.6
		c-0.6,1.1-1.9,1.4-2.8,0.7c-1.2-1.5-1.6-3.4-1.5-5.5c1.4-0.6,3-1.4,3.5-2.9C313.7,179.9,315.6,183.1,313.2,185.6 M299.8,183.8
		c-0.6,2-0.5,5.3-3.1,5.6c-0.3-1.6-2.4-2.3-2.1-3.9C296.6,185.7,298.2,184.8,299.8,183.8 M267.9,186.3c0.3,2.1-0.3,3.8-1.3,5.2
		c-2.1,1.3-3.9-0.5-5.3-2v-4.2C263.3,186.1,265.6,186.5,267.9,186.3 M291.1,190.1c-0.5,2.8,0,6.6-3.1,7.6c-2.1,0.1-2.7-2.2-3.9-3.5
		c-1.1-2.2-1.1-5.7,0-8C286.9,183.4,289.6,188.2,291.1,190.1 M325.4,185.6c-0.5,0.8-0.7,1.9-1.7,2.4c-1.2,0.3-2.5-0.2-2.8-1.3
		C322.1,186.3,323.9,185.9,325.4,185.6 M255.7,191.5c0.7-1.9-2.9-4,0.4-4.9C256.7,187.8,256.5,190.1,255.7,191.5 M332.7,194.7
		c-0.3,1.8-1.9,3.4-3.1,4.5c-0.7-2.6-4.8-6-1.5-8.7c0.9-0.9,2-2.2,2.9-0.8C331.6,191.3,331.2,193.4,332.7,194.7 M316.7,189.7
		c-0.9,1.4-2,2.4-2.5,3.9c-1,0.2-0.9-1.1-1.4-1.7C314,191.2,315.5,190.8,316.7,189.7 M275.4,192.6c-0.8,2.8,0.4,6.9-2.8,8
		c-1.7-0.3-3.3-1.5-4.2-3.1c-0.3-1.4,1.7-1.5,2.4-2.8l1.8-4.2C273.8,190.4,274.4,191.9,275.4,192.6 M309.6,196.7
		c-0.3,2.3-0.5,4.6-2.4,6.3c-2.4,1-3-2-3.9-3.2c-0.9-2.7-0.1-6,1.7-7.7C307.9,192,308.1,195.3,309.6,196.7 M323.3,197.5
		c1.6,2.1-0.4,3.9-0.7,5.9c-0.5,1.1-2,2.5-3.2,1.4c-1.8-2.2-2.2-5.9-1-8.4C318.7,192.3,323.6,194.9,323.3,197.5 M259.2,198.5
		c-0.3,2.8,0.8,6.1-1.4,8c-2.8,0.9-3.8-1.9-5.2-3.4C256,202.2,254.7,193.9,259.2,198.5 M292.2,204.8c-1.3,0.1-2.8,0.1-3.2-1.4
		c1-1.4,4-1.5,5-3.9C294.3,201,293.2,203.2,292.2,204.8 M267.7,205.9c-1.3-1.3-4.4-2.4-3.2-4.8C265.1,203.1,268.4,203.2,267.7,205.9
		 M278.9,202.7c0.1,2.3,0.1,4.6-1.4,6.2c-2,0.3-3.7-1.5-4.3-3.1C275.5,205.4,277.4,203.9,278.9,202.7 M308.9,208
		c0,1.4-1.1,2.8-2.4,3.5c-1.8,0.3-3.3-1.7-3.8-3.2v-1C304.1,209,307,208.2,308.9,208 M272.9,215.9c-3-1.3-6-3.9-4.2-7.7
		C270.1,210.8,273,212.8,272.9,215.9 M263.1,208.9c0.6,2.6,0.4,5.7-1.1,7.8c-2.2-0.4,0.2-4.2-2-5.3
		C260.5,210.5,262,209.8,263.1,208.9 M295.7,210.4c-0.2,2.7-0.2,6.7-3.2,8.4c-1.7,0.2-3-1.6-3.8-2.9c0.2-1.9,1-3.7,0.7-5.9
		C291.7,210.8,294.4,208.4,295.7,210.4 M284.1,211.4c-0.7,2.4,0.2,5.6-2.2,7c-2.3,0.3-3.1-2.4-4.2-3.9c1.8-0.5,4.2-2.2,4.9-4.2
		C283.3,210.4,283.6,211.1,284.1,211.4 M256.5,219.8c0.3,1.2-0.5,2.8-1.7,2.8c-1.7,0-2.7-1.5-3.9-2.2c1.1-2,4.2-3.4,3.5-6.3
		C257.5,214.1,255.2,218.1,256.5,219.8 M300.5,229.9c-1.3,1.2-3.1,2.5-4.8,1c-2-1.9-3.2-4.2-3.2-6.9c3,0.1,5.4-2.5,6.8-4.8l0.2-1.1
		C304.3,220.7,301.9,226.1,300.5,229.9 M270.5,221.1c-0.2,2.9,0.6,6.4-1.8,8.1c-2,0.4-3.7-0.9-4.5-2.5c-0.8-1.2,0.1-3.1-1.5-4.1
		C265.2,222.1,267.9,215.6,270.5,221.1 M286.9,225.8c-0.5,3.1-0.3,6.8-2.8,8.7c-2.7,1.3-4.9-1.9-6-3.8c-0.8-2.5-2.1-5.2-1.1-8
		C279.9,225.8,285.3,220.5,286.9,225.8 M259.2,232.7c-1.1,1.9-2.9,0.7-4.2,0c-1.9-1.6-3.1-3.4-3.6-5.5c2.2,1.3,5.2,0.6,7-0.8
		C259.3,228,260.1,230.7,259.2,232.7 M271.2,234.1c-0.4,1.5,0.1,3.3-1.1,4.5c-1.4,1.5-3.5,0.3-4.9-0.3c-1.3-1.2-2.1-3.3-0.7-4.6
		C266.3,234.9,269.1,234.6,271.2,234.1 M280.6,240.4c-0.5,2.4,1.1,5.9-1.4,7c-2.4,0.2-4.1-2.4-5-4.2c-0.5-2,2-3.9,1.8-6.3
		C277.6,238.1,279.3,238.8,280.6,240.4 M260,242.9c0.2,1.1-0.5,1.8-0.8,2.7c-1.2-1.7-1.9-4.8-2.1-7
		C260.1,237.3,259.3,241.3,260,242.9 M268.4,244.7c-0.1,0.6-1,1-1.4,1.7l-2.2-1.1C264.9,243,267,245.3,268.4,244.7 M290,257.6
		l-4.2,0.3c-0.7-2.9,0.1-6.7-0.6-9C289.8,249.8,288,254.7,290,257.6 M269,253.6c0.7,2.7,1.9,5.8,0.3,8.5c-1.3,1.1-2.3,0.7-3.8,0.3
		c-1.5-2.8-1.3-7.6-5.6-8.1c-1.1-1.5,0.1-3.5,1.7-4.2C264.6,250.3,266.6,252.5,269,253.6 M279.9,252.6c0.4,2.2,0.8,5.3-0.4,7.4
		c0.9-5-6.8-3.9-5.5-9.1C275.7,252,277.5,253.1,279.9,252.6 M293.5,267.4c-0.3,3,1,7.3-2.5,8.3c-2.5-0.2-4.4-2.9-5.6-4.8
		c-1.2-1.9-0.8-4.9-0.3-7C288.3,261,291,265.6,293.5,267.4 M274.9,268.3c-0.9,1.5-3.2,1.1-4.5,0.7c-0.5-0.5-1.1-0.5-1.5-1
		c2.3-0.4,4.7-2.4,5.6-4.5C275.8,264.6,275.5,267,274.9,268.3 M279.5,277.1c0.5,1.8,1,4.8-1.4,5.3c-3.2,0-5.8-3-7.4-5.6l-0.3-1.7
		c1.9-0.6,4.9-0.1,6.6-1.7C279.1,273.5,279.1,275.6,279.5,277.1 M292.4,281c0.8,2.2,0.4,4.8-1,6.6c-3,0.1-5.4-1.2-7.8-2.7
		c1-1.9,1.8-3.9,1.5-6.3C287.2,280.2,290.4,281,292.4,281 M249.1,206.9c-0.1,2.8,2,8.4-2.2,9c-2.6-0.5-5-3-6.2-5.3
		c-0.7-1.9-1.5-4.4-0.7-6.6C243,200.8,246.3,205.4,249.1,206.9 M242.1,228.5c-0.4,1,0.5,2.3-0.8,2.8c-2.9,0.3-5.2-2.4-6.3-4.6
		c-0.3-0.8-0.7-2-0.3-2.8C237.5,221.7,243.2,224.3,242.1,228.5 M249.7,240.1c0.2,1.1-0.1,1.7-1,2.4c-2.4-0.3-4.9-1.7-5.9-4.2
		c-1.9-2.4,1.6-2,2.4-3.5C248.4,234.7,249.3,237.6,249.7,240.1 M253.7,245.6c0.4,1.4,0.8,3.5-0.4,4.6c-2.6,0.8-4.1-1-6-2.4
		C249.7,247.7,251.8,247.1,253.7,245.6 M258.9,259.6c1,1.9,1.6,4.1,1.4,6c-3.1,1.8-5.4-1.4-7-3.5c-0.9-1.1-1.2-3.2,0-4.2
		C255.4,257.8,257.1,259,258.9,259.6 M261,272.2c1,2.8,3.6,5.4,2.1,8.8c-1.5,0.9-3,1.2-4.6,0.4c-6-2.3,1.5-7-2.4-10.5L261,272.2z
		 M269.7,289.3c0,2.5-3.2,1.3-4.5,1.1c-1-1.2-3.4-1.4-3.2-3.5c2.5,0.6,3.4-2.3,5.7-2.4L269.7,289.3z M252.9,176.1
		c-0.1,2.8,0.4,6.1-1.7,7.7c-2.4,0.2-4.5-1.9-5.2-3.8c-0.8-2.1-1.6-4.6-0.8-7C248.1,170.1,250.6,174.7,252.9,176.1 M250.9,194.9
		c0.2,1.5-0.2,2.6-1.1,3.5c-3,0.5-4.2-1.9-5.9-3.8c-0.4-1.9-1-3.6-0.7-5.6c2.2-2.2,4.9,0.9,7,2.1L250.9,194.9z M228.1,235.9
		c0.2,2.4,4.1,6.3-0.4,7.3c-2.5-1.6-5.2-5.1-4.4-9L228.1,235.9z M237.5,250.2c0.4,1.4-0.4,2.8-1.8,2.8c-2.5-0.3-4.8-1.9-6.3-4.2
		c0.8-1.3,3.1-1.7,4.3-3.5C236.9,244.8,236,248.8,237.5,250.2 M248.7,254.7c-1.2,2.4-2,6-0.7,8.8c-2.3-2.5-2.1-7.8-6.7-7.4
		c0.5-1.4,1.3-3.6,1.4-5.6C244.5,252.5,246.6,253.9,248.7,254.7 M243.5,266.3c0.4,1.3-0.4,2.8-1.8,2.8c-1.4-0.6-3.2-0.1-4.1-1.7
		c1.4-2.1,0.3-5-0.3-7C241.3,259.7,242,263.7,243.5,266.3 M251.9,275.3c-1,3.1-4.6,1.3-6.3,0.4c-0.7-0.3-1.2-0.9-1.8-1.4
		c2.1-0.7,3.6-3.4,4.9-5.3C250.4,270.6,251.3,273,251.9,275.3 M257.2,289.3c-0.2,1-0.6,2.1-1.7,2.1c-2.1-0.2-4.1-0.4-5.7-1.8
		c1.3-2.3-0.6-4.2-1-6.3C253.2,282.4,255.9,285.8,257.2,289.3 M235.5,185.6c-1.1,1.2-1.9,0.8-3.2,0.4l-3.1-3.2
		c1.7-1.2,4.1-4.2,6.3-3.1V185.6z M241,184.2l-0.3-3.5l1.4,2.8L241,184.2z M228.5,191.9c-0.5,3.1,2.7,8-1.5,9.4
		c-2.7,0.3-4.4-1.6-6.3-3.1c-1.4-2.3-2.9-4.8-2.7-7.7c1.7-1.4,3.7-3.7,5.9-1.8C225.4,189.7,227.2,190.8,228.5,191.9 M237.9,190.8
		c0,2.7,1.2,5,1.8,7.4c-0.5,0.1-1.1,0.2-1.5,0.7c-0.4-3.7-6.1-2.4-4.5-7C235,191.5,236.5,191.2,237.9,190.8 M220.4,206.2
		c-0.7-0.1-3.9-0.5-3.2-2.8v-1.5C218.9,202.8,219.9,204.6,220.4,206.2 M233.7,208.2c-0.9,0.9-1.9,1.3-3.2,1.1
		c-1.1-0.8-2.5-1.1-3.5-2.4c2.2-0.5,4.5-2,6.3-4.2C233.7,204.5,234.5,206.4,233.7,208.2 M220,217c0.2,1.3-0.5,2.4-1.8,2.8
		c-3.4-0.3-6.5-3.1-7.7-6.3c3.1,0.4,5-4.8,7.7-2.1L220,217z M236.2,217.7c-1,1.6-3.5,1.4-4.5,0.4l-3.9-3.9c1.7,0,5.7,1.4,7.8-0.7
		C236.8,214.2,235.9,216.4,236.2,217.7 M225,225.1c-0.8,1.6-3.2,1.1-4.3,0.4c-0.2-0.2-0.3-0.5-0.7-0.4l3.9-3.6
		C224.7,222.1,225.1,223.7,225,225.1 M236.5,235.5c1,1.4,1.1,3.8,2.1,5.6c-6.2,1.2-3.9-6-6.3-8.7l-4.8-2.5l2-2.7
		C230.9,230,233,233.8,236.5,235.5 M212.3,203.7c-0.3,1.5,0.8,3.9-1.3,4.3c-3.2,0.3-5.6-2.1-7.4-4.3c0.9-2.1,3.3-4,5.3-5.5
		C212.1,198.2,211.2,201.8,212.3,203.7 M203.2,218.4c-0.1,0.7,0.3,1.5-0.3,2c-2-2.4-1.5-6.5-4.9-7.7l-2.4-0.4
		c-0.3-0.5,0.3-1.5,1-2.1C202,209.7,201.5,215.1,203.2,218.4 M210.6,227.2c-0.8,1.4-2.4,0.3-3.5,0c-0.4-1.1-2.3-0.9-1.1-2.1
		c1.2-1,1.9-2.2,2.1-3.6C209.7,222.4,210.8,224.9,210.6,227.2 M218.7,237.3c0.1,2.3-3.1,1.8-4.6,1.4c-1.7-1.2-3.1-2.2-3.9-4.1
		c-1.1-3,2.9-1.3,3.9-3.1C217.7,231.3,217.1,235.3,218.7,237.3 M223.9,250.2c-0.1,1.4-0.9,3-2.4,3.2l-3.5-0.8c0.6-2.7-1-5.5-1.4-8.3
		C221.8,241.4,222.4,247.2,223.9,250.2 M232.7,263.1c0.8,1.5,0.1,3.4-1.4,3.9c-5.2,0.1-4.8-7.9-10.5-7.4c0.3-2.3,3.3-1.1,4.6-2.4
		C229.4,256.9,231.3,260,232.7,263.1 M235.8,275.3c0.4,1.3-0.4,2.8-1.7,2.8c-2.7,0.4-4.8-0.7-6.6-2
		C227.7,271.9,235.9,269.2,235.8,275.3 M244.9,287.5c0.4,1.4-0.6,2-1.4,2.8c-1.3,0.7-3-0.1-4.5-0.3c1.3-3.1-5.7-6.7-0.7-8.4
		C242.3,280.7,243,285.4,244.9,287.5 M196.2,218c0.4,2.4,3.9,4.9,1.1,7.4c-3.5,0.4-6.1-1.9-8.1-4.6c-0.9-1.6,1.5-2.8,2.1-4.2
		L196.2,218z M185,226.7c0.8,3.1,4.2,5.1,3.5,8.8c-1.4,2.6-5.1,1.9-7,1c-0.9-0.8-3.6-1-2.4-2.8C181,231.5,182,227.8,185,226.7
		 M205.7,236.2c0.2,1.1-0.3,1.9-1.1,2.4c-5.4,0.7-4.3-7.3-9.8-7.3c1-1.4,3.6-0.2,4.9-1.5C203.9,229,204.5,233.8,205.7,236.2
		 M198.4,242.9c0.1,1.4,0.1,3.4-1.8,3.5c-2.8,0.4-4.8-0.7-7-1.7l-1.4-2.2c2.1-1.2,4.4-3.1,5.2-5.6
		C195.9,237.6,197.1,240.8,198.4,242.9 M184.7,246.4c1.2,1.5-0.7,2.8-2.2,2.7c-2.9-0.3-5.7-1.8-7.4-4.4c-0.7-2,1.2-2.7,2.5-2.9
		C181.2,241.2,183.1,243.8,184.7,246.4 M212.7,249.1c0.1,1.2-0.5,2.5-1.7,2.5c-3.4,0.2-5.8-1.5-8.1-3.8c0.9-2.2,0.8-4.4,3.8-4.6
		C211.3,241.7,210.8,247.1,212.7,249.1 M169.9,250.8l1.5-2.4l2.4,2.4H169.9z M200.1,251.9v0.7c-3.8-1.3-8.3,1.4-10.9-2.1
		C192.6,252.6,196.7,250.9,200.1,251.9 M190.3,260c0.8,1-0.5,2.7-1.8,2.8c-2.4,0-4.5-0.7-6.3-2.1c-0.5-1.5-3.4-4-0.3-4.9
		C185.6,254.9,188.8,256.8,190.3,260 M176.9,261.3c0.1,1.6-1.2,2.2-2.5,2.6c-3.1-0.4-6.3-1.8-8.3-4.3c0.9-1.1,0.5-2.9,2-3.5
		C172.5,254.5,175.4,258.4,176.9,261.3 M203.2,263.1c0.5,1.5-0.6,2.7-1.8,3.2c-3.2,1.1-3.6-3.3-5.9-3.9c0.3-1.9-0.5-3.9-0.7-5.2
		C199.6,256,201.1,260.2,203.2,263.1 M215.5,265.6c0.3,1.1-0.3,2-1.4,2.1c-2.1-0.6-2.5-3.6-4.2-5.2l-1.7-2.4
		C212.4,259,214.1,262.6,215.5,265.6 M224.6,271.6c-1.6,2-4.5,0.5-6.3,0c1.6-1.9,3.1-3.6,2.4-6.3
		C222.7,266.4,224.7,268.8,224.6,271.6 M183.9,272.6c-0.1,1.4-1.1,1.7-2.4,2c-0.6-2-1.5-4.7-3.2-6.6
		C181,267.7,182.9,270.8,183.9,272.6 M198.4,273.6c0,1.4-1.2,2.4-2.5,2.5c-2.8,0.2-5-0.9-7-2.5c1.9-2.7-4-6.5,1.8-5.6
		C194.8,266.8,196.7,271.1,198.4,273.6 M208.2,270.8c-1.4,1.8-2.9,0.9-5,1c0.9-1.2,3-2.1,4.3-3.8
		C207.8,268.9,209.2,269.8,208.2,270.8 M176,273.6c0.3,1.9-1.6,2.9-3.1,3.1c-4,0.1-8.1-1.3-9.9-5.2c0-1.3,1.2-2.8,2.5-2.8
		c1.7-0.7,3.9-0.3,5.9-0.4L176,273.6z M213.7,275h-2C211.9,273.6,213.2,274.1,213.7,275 M220.7,277.8c-0.7,0.2-3.9,1.4-4.5-1.5
		L220.7,277.8z M181.2,279.9c-1.7,3.9-6.1,2.8-9.5,3.5c-0.3-0.6-1.4-0.8-1-1.8C174.5,283,177.2,279.3,181.2,279.9 M216.2,284.8
		c0.9,1-0.4,2.3-1.4,2.7c-1.7-0.2-3.7,0.6-4.9-0.7c-0.1-2-0.9-4.5-2.4-6.3C211.2,278.9,214.6,281.7,216.2,284.8 M204.6,285.8
		c-0.3,0.9-0.8,1.9-1.8,2.2c-3.9,1.3-2.4-3.7-5.2-4.9l-1.1-1C200.4,279.3,202.3,283.6,204.6,285.8 M168.6,287.9
		c-0.1,1.2-1,2.3-2.2,2.8c-3.1,0-5.7-2.2-8.7-1.5c-0.1-1.7,0.2-4.2,1.1-5.9C163.1,280.1,166.2,285.9,168.6,287.9 M228.7,282.7
		c1.8,2.4,5,4.7,4.2,7.6c-1.3,2.4-4.6,1.3-6.6,1.1c-2-0.7-3.7-1.8-5.2-3.1c1-2.1-0.6-4.6,1.4-5.6H228.7z M195.5,288.6
		c-0.2,1.2-1,2.3-2.1,2.8c-4.7,1.3-7.9-2-10.5-5.2c0.6-3.4,5.1-1.9,7.7-2.8L195.5,288.6z M182.2,293.1c0.6,1.1,0,2.7-1.4,3.1
		l-7.7-5.5C174.5,285.2,180.4,290.3,182.2,293.1 M166.4,299.5c0.4,1.9-1.3,2.8-2.7,3.5c-3-0.1-6.6,0.3-8.5-1.8
		c0.4-1.7,0.8-3.3,0.7-5.2C159.8,292.2,163.9,296.7,166.4,299.5 M215.5,300.8c0,1.3-1.4,2.2-2.4,2.8c-3.4,1-6.5-0.4-9.5-1.4
		c0-2.2-1.5-5.4,0-6.7c1.9-0.3,4-0.7,5.9-1.1C211.6,296.7,214.8,297.9,215.5,300.8 M176.9,300.8c-0.1,1.9-2.1,2.1-3.5,2.4H171
		c1.6-2.3,0-5.4,0-7.3C173.1,297.3,176.1,298.1,176.9,300.8 M198,299.1c0,1.2,0.3,2.5-1,3.2c-2-0.8-0.5-4.2-2.8-5.2l0.3-0.8
		C195.9,296.5,196.8,298.1,198,299.1 M190.9,301.5c0.2,1.9-1.5,2.6-2.7,3.2c-2.2,0.8-4.7,0-6.7-0.7c-1.2-3.6,4.4-2.9,5.2-6.3
		C188.3,298.6,190.5,299.6,190.9,301.5 M164,314.1c0.2,2.3-2.5,2.3-3.8,3.2l-5.6-0.3c-0.4-2.5-1.3-6.9,2.1-7.4
		C159.6,309.9,163,311.3,164,314.1 M176.9,315.9c-0.2,1.4-0.7,3.3-2.5,3.5c-2.2,0.6-5,1.9-7.3,0.4c1.8-2.5,2.4-5.9,2-8.8
		C172.2,311.9,175.1,313.3,176.9,315.9 M298.1,345.6l-2.2-1.5c0.3-0.9,1.5-1.2,2.6-1L298.1,345.6z M455.6,224.3
		c1.4,2.4-1.5,3.9-2.2,6c-2.3,0.2-5.6,1.6-7.7-0.4c-1-3.8,3.6-1.8,4.8-3.8C451.8,224.3,454,220.2,455.6,224.3"/>
	<path class="st0" d="M155.6,156.3c-44,44.1-68.3,102.6-68.3,164.9c0,62.2,24.2,120.8,68.3,164.8c44,44,102.6,68.3,164.9,68.3
		c62.2,0,120.8-24.2,164.9-68.3c44-44,68.2-102.6,68.2-164.8c0-62.3-24.2-120.8-68.2-164.9c-44.1-44-102.6-68.3-164.9-68.3
		C258.2,88.1,199.6,112.3,155.6,156.3 M158.6,483.1c-43.2-43.3-67.1-100.7-67.1-161.9c0-61.2,23.8-118.7,67.1-161.9
		c43.2-43.2,100.7-67.1,161.9-67.1c61.1,0,118.6,23.8,161.9,67.1c43.2,43.2,67,100.7,67,161.9c0,61.1-23.8,118.6-67,161.9
		c-43.3,43.3-100.8,67.1-161.9,67.1C259.3,550.1,201.8,526.3,158.6,483.1"/>
	<path class="st0" d="M143.7,144.4c-47.2,47.2-73.2,110-73.2,176.8c0,66.8,26,129.5,73.2,176.8c47.2,47.2,110,73.2,176.7,73.2
		c66.8,0,129.6-26,176.8-73.2c47.2-47.2,73.2-110,73.2-176.8c0-66.8-26-129.6-73.2-176.8c-47.2-47.2-110-73.2-176.8-73.2
		C253.7,71.2,190.9,97.2,143.7,144.4 M150.7,490.9c-45.3-45.4-70.3-105.6-70.3-169.7s25-124.4,70.3-169.8
		c45.3-45.3,105.6-70.3,169.7-70.3s124.4,24.9,169.7,70.3c45.3,45.4,70.4,105.6,70.4,169.8s-25,124.3-70.4,169.7
		c-45.3,45.3-105.6,70.3-169.7,70.3S196,536.3,150.7,490.9"/>
	<path class="st0" d="M349.3,388.5h-26.5v-6.2c0-1.4-1.1-2.4-2.4-2.4c-1.3,0-2.4,1-2.4,2.4v6.2h-26.5c-1.3,0-2.4,1.1-2.4,2.4v17.4
		c0,1.4,1.1,2.4,2.4,2.4c1.4,0,2.4-1.1,2.4-2.4v-15.1h13.7v15.1c0,1.4,1,2.4,2.4,2.4s2.4-1.1,2.4-2.4v-15.1h16v15.1
		c0,1.4,1.1,2.4,2.5,2.4c1.3,0,2.4-1.1,2.4-2.4v-15.1h13.7v15.1c0,1.4,1,2.4,2.4,2.4c1.3,0,2.4-1.1,2.4-2.4V391
		C351.7,389.6,350.6,388.5,349.3,388.5"/>
	<path class="st0" d="M349.3,438.6h-57.8c-1.3,0-2.4,1-2.4,2.4v28.4c0,1.3,1.1,2.4,2.4,2.4c1.4,0,2.4-1.1,2.4-2.4v-26h53v26
		c0,1.3,1,2.4,2.4,2.4c1.3,0,2.4-1.1,2.4-2.4V441C351.7,439.7,350.6,438.6,349.3,438.6"/>
	<path class="st0" d="M291.5,436.8h14.7c1.4,0,2.4-1.1,2.4-2.4c0-1.4-1.1-2.4-2.4-2.4h-12.3v-2.7h12.3c1.4,0,2.4-1,2.4-2.4
		c0-1.3-1.1-2.4-2.4-2.4h-12.3v-2.6h12.3c1.4,0,2.4-1.1,2.4-2.4c0-1.3-1.1-2.4-2.4-2.4h-12.3v-1.6c0-1.3-1.1-2.4-2.4-2.4
		c-1.3,0-2.4,1.1-2.4,2.4v19C289.1,435.7,290.2,436.8,291.5,436.8"/>
	<path class="st0" d="M349.3,413c-1.4,0-2.4,1.1-2.4,2.4v1.6h-12.3c-1.3,0-2.4,1.1-2.4,2.4c0,1.3,1,2.4,2.4,2.4h12.3v2.6h-12.3
		c-1.3,0-2.4,1.1-2.4,2.4s1,2.4,2.4,2.4h12.3v2.7h-12.3c-1.3,0-2.4,1-2.4,2.4c0,1.3,1,2.4,2.4,2.4h14.7c1.3,0,2.4-1.1,2.4-2.4v-19
		C351.7,414.1,350.6,413,349.3,413"/>
	<path class="st0" d="M310.1,435.6c0.7,1.1,2.2,1.5,3.4,0.9l6.9-4l7,4c1.1,0.6,2.6,0.2,3.3-0.9c0.7-1.1,0.3-2.6-0.9-3.3l-4.6-2.6
		l4.6-2.6c0,0,0-0.1,0.1-0.1c0.1-0.1,0.1-0.1,0.2-0.2c0.1-0.1,0.2-0.1,0.2-0.1c0.1-0.1,0.1-0.1,0.2-0.2c0,0,0.1-0.1,0.2-0.2
		c0,0,0-0.1,0-0.1c0,0,0,0,0,0c0-0.1,0.1-0.2,0.1-0.3c0,0,0-0.1,0.1-0.2c0-0.1,0-0.2,0-0.2c0-0.1,0.1-0.2,0.1-0.3v-0.2v-0.2
		c0-0.1,0-0.1-0.1-0.2c0-0.1,0-0.2,0-0.2c-0.1-0.1-0.1-0.1-0.1-0.2c0-0.1-0.1-0.2-0.1-0.3c0,0,0-0.1,0-0.1c0-0.1,0-0.1,0-0.1
		c-0.1-0.1-0.2-0.2-0.2-0.2c0-0.1-0.1-0.1-0.2-0.2c0-0.1-0.1-0.2-0.2-0.2c0-0.1-0.1-0.1-0.2-0.2c0,0-0.1,0-0.1-0.1l-4.6-2.6l4.6-2.7
		c1.2-0.6,1.6-2.1,0.9-3.3c-0.6-1.1-2.1-1.5-3.3-0.9l-7,4l-6.9-4c-1.2-0.7-2.7-0.2-3.4,0.9c-0.6,1.2-0.2,2.6,0.9,3.3l4.6,2.7
		l-4.6,2.6c0,0.1-0.1,0.1-0.1,0.1c-0.1,0.1-0.2,0.1-0.2,0.2c-0.1,0-0.1,0.1-0.2,0.2c-0.1,0-0.1,0.1-0.2,0.2c0,0-0.1,0.1-0.1,0.2
		c0,0,0,0-0.1,0.1c0,0,0,0,0,0.1c0,0.1-0.1,0.2-0.1,0.3c0,0.1,0,0.1-0.1,0.2c0,0.1,0,0.1,0,0.2c0,0.1,0,0.1,0,0.2v0.2v0.2
		c0,0.1,0,0.2,0,0.3c0,0,0,0.1,0,0.2c0,0.1,0,0.2,0.1,0.2c0.1,0.1,0.1,0.2,0.1,0.3l0,0c0.1,0.1,0.1,0.1,0.1,0.1
		c0.1,0.1,0.1,0.2,0.1,0.2c0.1,0.1,0.1,0.1,0.2,0.2c0.1,0.1,0.1,0.1,0.2,0.1c0.1,0,0.1,0.1,0.2,0.2c0,0,0.1,0,0.1,0.1l4.6,2.6
		l-4.6,2.6C309.9,433,309.5,434.5,310.1,435.6 M317.1,425l3.4-2l3.3,2l-3.3,1.9L317.1,425z"/>
	<path class="st0" d="M341.1,445.4c-1.3,0-2.4,1.1-2.4,2.4v12.1h-15.9v-2.1h10.5c1.3,0,2.4-1.1,2.4-2.4v-7.7c0-1.3-1.1-2.4-2.4-2.4
		h-25.8c-1.3,0-2.5,1.1-2.5,2.4v7.7c0,1.3,1.1,2.4,2.5,2.4H318v2.1h-15.9v-12.1c0-1.3-1.1-2.4-2.4-2.4c-1.4,0-2.4,1.1-2.4,2.4v14.6
		c0,1.3,1.1,2.4,2.4,2.4H318v2.2h-18.1c-1.3,0-2.4,1.1-2.4,2.4c0,1.3,1.1,2.4,2.4,2.4h20.5c1.3,0,2.4-1.1,2.4-2.4v-4.6h18.3
		c1.4,0,2.4-1.1,2.4-2.4v-14.6C343.5,446.5,342.5,445.4,341.1,445.4 M310,450.2h20.9v2.8H310V450.2z"/>
	<path class="st0" d="M449.2,498l-14.6,10l-1-1.5c0.4-0.3,1.1-0.8,1.9-1.5c0.8-0.7,1.4-1.3,1.7-1.6c0.4-0.5,0.5-0.9,0.5-1.4
		c0-0.5-0.2-1-0.6-1.7l-14.3-21l-5.4,3.7l-1.2-1.7l1.2-0.8c1.5-1.1,2.8-2.3,3.6-3.7c0.9-1.4,1.4-2.6,1.4-3.6l1.8-1.2
		c0.6,1,1.3,2.1,2.2,3.4c0.8,1.3,1.6,2.4,2.3,3.4l12.6,18.4c0.4,0.5,0.7,0.9,1.2,1.1c0.5,0.2,1,0.3,1.6,0.2c0.5-0.1,1.2-0.3,2.2-0.7
		c0.9-0.5,1.6-0.9,2-1.1L449.2,498z"/>
</g>
</svg>
