<svg xmlns="http://www.w3.org/2000/svg" xmlns:xlink="http://www.w3.org/1999/xlink" width="500" zoomAndPan="magnify" viewBox="0 0 375 374.999991" height="500" preserveAspectRatio="xMidYMid meet" version="1.2"><defs><clipPath id="2e428c1c4e"><path d="M 12 8 L 362.1875 8 L 362.1875 357.695312 L 12 357.695312 Z M 12 8 "/></clipPath><clipPath id="cc5f946542"><path d="M 51.0625 8.316406 L 323.9375 8.316406 C 345.0625 8.316406 362.1875 25.441406 362.1875 46.566406 L 362.1875 319.445312 C 362.1875 340.570312 345.0625 357.695312 323.9375 357.695312 L 51.0625 357.695312 C 29.9375 357.695312 12.8125 340.570312 12.8125 319.445312 L 12.8125 46.566406 C 12.8125 25.441406 29.9375 8.316406 51.0625 8.316406 Z M 51.0625 8.316406 "/></clipPath><clipPath id="3a05ad3835"><path d="M 113 129 L 222 129 L 222 273 L 113 273 Z M 113 129 "/></clipPath><clipPath id="191a24a3aa"><path d="M 188.582031 129.082031 L 221.65625 149.042969 L 146.914062 272.886719 L 113.839844 252.925781 Z M 188.582031 129.082031 "/></clipPath><clipPath id="5f9da25b61"><path d="M 113 159 L 196 159 L 196 243 L 113 243 Z M 113 159 "/></clipPath><clipPath id="5f38848aa6"><path d="M 153.878906 159.390625 L 195.117188 192.105469 L 155.078125 242.578125 L 113.835938 209.863281 Z M 153.878906 159.390625 "/></clipPath><clipPath id="0203f18b16"><path d="M 170 153 L 240 153 L 240 222 L 170 222 Z M 170 153 "/></clipPath><clipPath id="fe3dde9365"><path d="M 194.757812 153.707031 L 239.824219 180.902344 L 215.070312 221.921875 L 170.003906 194.722656 Z M 194.757812 153.707031 "/></clipPath></defs><g id="9f25c5cab0"><rect x="0" width="375" y="0" height="374.999991" style="fill:#ffffff;fill-opacity:1;stroke:none;"/><rect x="0" width="375" y="0" height="374.999991" style="fill:#ffffff;fill-opacity:1;stroke:none;"/><g clip-rule="nonzero" clip-path="url(#2e428c1c4e)"><g clip-rule="nonzero" clip-path="url(#cc5f946542)"><path style=" stroke:none;fill-rule:nonzero;fill:#188ead;fill-opacity:1;" d="M 12.8125 8.316406 L 362.1875 8.316406 L 362.1875 357.695312 L 12.8125 357.695312 Z M 12.8125 8.316406 "/></g></g><g style="fill:#ffffff;fill-opacity:1;"><g transform="translate(84.432547, 201.423413)"><path style="stroke:none" d="M 29.109375 -106.328125 C 29.109375 -100.691406 30.441406 -95.832031 33.109375 -91.75 C 35.785156 -87.675781 39.054688 -84.269531 42.921875 -81.53125 C 46.796875 -78.789062 52.175781 -75.378906 59.0625 -71.296875 C 66.375 -66.941406 72.035156 -63.320312 76.046875 -60.4375 C 80.054688 -57.550781 83.5 -53.859375 86.375 -49.359375 C 89.257812 -44.859375 90.703125 -39.445312 90.703125 -33.125 C 90.703125 -26.507812 89.082031 -20.492188 85.84375 -15.078125 C 82.613281 -9.671875 77.800781 -5.382812 71.40625 -2.21875 C 65.007812 0.945312 57.171875 2.53125 47.890625 2.53125 C 42.960938 2.53125 38.285156 2 33.859375 0.9375 C 29.429688 -0.113281 24.546875 -1.972656 19.203125 -4.640625 C 18.492188 -5.066406 18.035156 -5.5625 17.828125 -6.125 C 17.617188 -6.6875 17.441406 -7.53125 17.296875 -8.65625 L 14.140625 -36.078125 L 14.140625 -36.28125 C 14.140625 -36.84375 14.488281 -37.160156 15.1875 -37.234375 C 15.894531 -37.304688 16.316406 -37.0625 16.453125 -36.5 C 17.859375 -26.789062 21.582031 -18.347656 27.625 -11.171875 C 33.675781 -4.003906 41.976562 -0.421875 52.53125 -0.421875 C 59.976562 -0.421875 66.269531 -2.457031 71.40625 -6.53125 C 76.539062 -10.613281 79.109375 -17.015625 79.109375 -25.734375 C 79.109375 -32.066406 77.703125 -37.515625 74.890625 -42.078125 C 72.078125 -46.648438 68.664062 -50.445312 64.65625 -53.46875 C 60.644531 -56.5 55.195312 -60.050781 48.3125 -64.125 C 41.5625 -68.0625 36.25 -71.503906 32.375 -74.453125 C 28.507812 -77.410156 25.207031 -81.101562 22.46875 -85.53125 C 19.726562 -89.96875 18.359375 -95.28125 18.359375 -101.46875 C 18.359375 -108.5 20.148438 -114.472656 23.734375 -119.390625 C 27.316406 -124.316406 31.988281 -128.007812 37.75 -130.46875 C 43.519531 -132.9375 49.710938 -134.171875 56.328125 -134.171875 C 64.054688 -134.171875 72.070312 -132.484375 80.375 -129.109375 C 82.476562 -128.265625 83.53125 -127.066406 83.53125 -125.515625 L 85.4375 -103.15625 C 85.4375 -102.59375 85.046875 -102.3125 84.265625 -102.3125 C 83.492188 -102.3125 83.039062 -102.59375 82.90625 -103.15625 C 82.34375 -110.46875 79.597656 -117.003906 74.671875 -122.765625 C 69.753906 -128.535156 62.722656 -131.421875 53.578125 -131.421875 C 45.140625 -131.421875 38.953125 -128.957031 35.015625 -124.03125 C 31.078125 -119.113281 29.109375 -113.210938 29.109375 -106.328125 Z M 29.109375 -106.328125 "/></g></g><g style="fill:#ffffff;fill-opacity:1;"><g transform="translate(143.282456, 298.004551)"><path style="stroke:none" d="M 120.703125 -109.734375 C 120.703125 -116.484375 119.257812 -121.441406 116.375 -124.609375 C 113.488281 -127.773438 108.953125 -129.359375 102.765625 -129.359375 C 102.335938 -129.359375 102.125 -129.78125 102.125 -130.625 C 102.125 -131.46875 102.335938 -131.890625 102.765625 -131.890625 L 111.625 -131.671875 C 116.40625 -131.390625 120.273438 -131.25 123.234375 -131.25 C 125.765625 -131.25 129.140625 -131.390625 133.359375 -131.671875 L 142.015625 -131.890625 C 142.296875 -131.890625 142.4375 -131.46875 142.4375 -130.625 C 142.4375 -129.78125 142.296875 -129.359375 142.015625 -129.359375 C 136.242188 -129.359375 132.019531 -127.773438 129.34375 -124.609375 C 126.675781 -121.441406 125.34375 -116.484375 125.34375 -109.734375 L 125.34375 -49.375 C 125.34375 -32.914062 120.910156 -20.113281 112.046875 -10.96875 C 103.179688 -1.820312 91.222656 2.75 76.171875 2.75 C 65.765625 2.75 56.691406 0.675781 48.953125 -3.46875 C 41.210938 -7.625 35.234375 -13.5 31.015625 -21.09375 C 26.796875 -28.695312 24.6875 -37.492188 24.6875 -47.484375 L 24.6875 -114.796875 C 24.6875 -119.015625 24.226562 -122.109375 23.3125 -124.078125 C 22.40625 -126.046875 20.648438 -127.414062 18.046875 -128.1875 C 15.441406 -128.96875 11.394531 -129.359375 5.90625 -129.359375 C 5.625 -129.359375 5.484375 -129.78125 5.484375 -130.625 C 5.484375 -131.46875 5.625 -131.890625 5.90625 -131.890625 L 16.03125 -131.671875 C 21.945312 -131.390625 26.660156 -131.25 30.171875 -131.25 C 33.972656 -131.25 38.828125 -131.390625 44.734375 -131.671875 L 54.4375 -131.890625 C 54.863281 -131.890625 55.078125 -131.46875 55.078125 -130.625 C 55.078125 -129.78125 54.863281 -129.359375 54.4375 -129.359375 C 48.957031 -129.359375 44.945312 -128.9375 42.40625 -128.09375 C 39.875 -127.25 38.148438 -125.804688 37.234375 -123.765625 C 36.328125 -121.722656 35.875 -118.59375 35.875 -114.375 L 35.875 -54.859375 C 35.875 -38.398438 39.738281 -25.703125 47.46875 -16.765625 C 55.207031 -7.835938 66.039062 -3.375 79.96875 -3.375 C 92.769531 -3.375 102.757812 -7.414062 109.9375 -15.5 C 117.113281 -23.59375 120.703125 -34.816406 120.703125 -49.171875 Z M 120.703125 -109.734375 "/></g></g><g clip-rule="nonzero" clip-path="url(#3a05ad3835)"><g clip-rule="nonzero" clip-path="url(#191a24a3aa)"><path style=" stroke:none;fill-rule:nonzero;fill:#188ead;fill-opacity:1;" d="M 188.582031 129.082031 L 221.65625 149.042969 L 146.878906 272.941406 L 113.808594 252.980469 Z M 188.582031 129.082031 "/></g></g><g clip-rule="nonzero" clip-path="url(#5f9da25b61)"><g clip-rule="nonzero" clip-path="url(#5f38848aa6)"><path style=" stroke:none;fill-rule:nonzero;fill:#188ead;fill-opacity:1;" d="M 153.878906 159.390625 L 195.117188 192.105469 L 155.117188 242.527344 L 113.878906 209.8125 Z M 153.878906 159.390625 "/></g></g><g clip-rule="nonzero" clip-path="url(#0203f18b16)"><g clip-rule="nonzero" clip-path="url(#fe3dde9365)"><path style=" stroke:none;fill-rule:nonzero;fill:#188ead;fill-opacity:1;" d="M 194.757812 153.707031 L 239.78125 180.878906 L 215.023438 221.894531 L 170.003906 194.722656 Z M 194.757812 153.707031 "/></g></g><path style="fill:none;stroke-width:8;stroke-linecap:butt;stroke-linejoin:miter;stroke:#ffffff;stroke-opacity:1;stroke-miterlimit:4;" d="M 0.00225537 4.000525 L 285.000623 4.00129 " transform="matrix(0.476975,-0.578787,0.578787,0.476975,116.218626,265.050187)"/></g></svg>